 <svg  version="1.0" xmlns="http://www.w3.org/2000/svg"  width="300.000000pt" height="225.000000pt" viewBox="0 0 300.000000 225.000000"  preserveAspectRatio="xMidYMid meet">  <g transform="translate(0.000000,225.000000) scale(0.050000,-0.050000)" fill="#ffffff" stroke="none"> <path d="M2912 4325 c-85 -228 -303 -750 -395 -945 l-80 -170 136 -127 c258 -239 487 -389 487 -320 0 10 -9 17 -19 17 -11 0 -15 12 -10 26 6 14 -26 66 -70 115 -44 49 -81 96 -81 105 0 9 -8 12 -17 6 -29 -18 -89 63 -75 100 10 27 7 29 -14 11 -75 -62 -108 184 -39 291 16 24 22 55 14 68 -10 16 -7 19 11 8 17 -10 22 -6 16 12 -5 15 7 45 27 66 21 22 37 54 37 72 0 19 7 40 15 48 8 9 15 26 16 39 0 13 12 21 25 18 14 -3 24 18 24 53 0 144 124 99 132 -48 5 -82 3 -77 45 -122 21 -22 48 -76 62 -119 36 -120 65 -169 89 -154 12 7 9 -3 -6 -22 -24 -30 -24 -38 4 -59 33 -24 74 -111 88 -184 4 -22 16 -43 27 -47 10 -3 19 -24 19 -45 0 -21 7 -38 16 -38 18 0 84 -140 84 -178 0 -13 9 -19 19 -12 11 6 26 -11 33 -39 7 -29 24 -58 38 -66 15 -8 29 -32 33 -53 7 -38 46 -90 187 -249 l80 -89 -70 14 c-687 141 -1092 79 -1705 -260 -108 -59 -200 -108 -207 -108 -9 0 116 164 152 200 42 42 129 176 162 250 21 48 48 94 60 101 11 7 16 26 10 42 -7 16 -3 24 8 17 11 -7 20 -3 20 9 0 11 14 21 31 21 17 0 26 8 20 18 -17 27 25 126 72 169 39 36 42 36 159 -16 65 -29 137 -57 160 -61 23 -5 55 -19 70 -32 20 -16 28 -16 28 -1 0 14 22 18 60 10 41 -8 60 -4 60 13 0 13 13 19 30 13 93 -36 8 26 -105 77 -74 33 -219 117 -323 186 -103 69 -188 123 -190 120 -91 -226 -1143 -2207 -1499 -2823 -118 -204 -119 -215 -21 -155 472 288 1124 575 1525 673 l146 35 -13 72 c-99 528 191 1079 535 1014 282 -53 503 -542 435 -961 -23 -143 -46 -120 186 -181 343 -89 828 -300 1281 -558 130 -74 240 -131 244 -127 4 4 -36 83 -88 176 -53 93 -138 246 -188 340 -116 214 -390 445 -735 619 -71 37 -120 70 -108 74 31 10 291 -85 453 -167 74 -37 135 -64 135 -59 0 5 -122 237 -271 515 -441 825 -945 1851 -1180 2402 -120 283 -223 515 -229 515 -5 0 -36 -70 -68 -155z m768 -2091 c138 -38 223 -131 352 -384 51 -99 105 -194 120 -212 15 -17 28 -44 29 -60 0 -15 13 -45 30 -67 49 -65 36 -105 -38 -119 -109 -21 -198 -160 -150 -236 13 -21 16 -21 17 0 0 14 24 1 52 -30 29 -31 61 -54 70 -51 10 3 17 -2 16 -10 -6 -35 3 -71 14 -60 7 7 77 -39 157 -101 80 -63 173 -135 207 -161 159 -122 153 -221 -9 -137 -53 27 -173 79 -267 116 -93 36 -179 73 -189 82 -10 9 -30 16 -44 16 -13 0 -50 10 -81 23 -31 13 -69 26 -85 29 -16 3 -48 14 -70 25 -23 11 -57 24 -76 31 -49 15 -75 94 -76 228 -1 225 -103 531 -213 640 -37 37 -61 76 -53 88 7 12 4 17 -7 10 -11 -7 -38 6 -58 29 -123 136 -324 193 -477 136 -122 -46 -323 -222 -378 -332 -76 -150 -130 -334 -152 -509 -12 -103 -26 -207 -31 -230 -7 -33 -60 -60 -245 -128 -129 -48 -351 -135 -493 -194 -304 -125 -352 -123 -242 14 13 17 60 98 104 180 44 83 103 191 130 240 49 88 220 406 267 495 12 24 29 39 36 31 7 -7 13 2 13 20 0 66 45 127 145 195 56 38 115 82 131 98 16 16 44 32 61 34 18 3 35 14 39 26 4 12 15 21 25 21 10 0 65 21 123 47 58 25 113 48 121 50 8 2 67 23 130 47 313 118 762 148 1045 70z"/> </g> </svg> 