<?xml version="1.0" standalone="no"?>
<!DOCTYPE svg PUBLIC "-//W3C//DTD SVG 20010904//EN"
 "http://www.w3.org/TR/2001/REC-SVG-20010904/DTD/svg10.dtd">
<svg version="1.0" xmlns="http://www.w3.org/2000/svg"
 width="512.000000pt" height="512.000000pt" viewBox="0 0 512.000000 512.000000"
 preserveAspectRatio="xMidYMid meet">
<metadata>
Created by potrace 1.10, written by Peter Selinger 2001-2011
</metadata>
<g transform="translate(0.000000,512.000000) scale(0.050000,-0.050000)"
fill="#ffffff" stroke="none">
<path d="M4340 9110 c-82 -82 -144 -150 -139 -150 6 0 77 68 159 150 82 83
144 150 139 150 -6 0 -77 -67 -159 -150z"/>
<path d="M4095 8626 c-217 -217 -395 -397 -395 -400 0 -3 144 -6 320 -6 l320
0 0 -946 0 -946 81 -79 81 -79 80 86 80 85 -6 940 -6 939 330 0 330 0 -400
400 c-220 220 -404 400 -410 400 -5 0 -188 -177 -405 -394z m445 104 c0 -16
12 -30 27 -30 32 0 135 -111 118 -128 -11 -11 26 -20 60 -14 8 1 15 -7 15 -17
0 -11 20 -40 45 -66 49 -51 79 -126 32 -80 -30 30 -65 33 -47 5 7 -12 -20 -20
-70 -20 -50 0 -77 -8 -70 -20 7 -11 -3 -20 -21 -20 -21 0 -29 -11 -22 -30 11
-28 -23 -42 -77 -31 -11 3 -13 -2 -5 -10 8 -9 6 -26 -6 -40 -15 -18 -41 -3
-104 60 -85 83 -155 125 -155 92 0 -9 -18 -13 -40 -7 -22 6 -35 19 -29 28 6
10 -3 18 -21 18 -18 0 -27 9 -20 20 7 12 21 16 31 9 10 -6 13 5 6 25 -8 20 -6
29 3 21 21 -19 73 24 59 47 -6 10 -1 18 12 18 35 0 100 81 85 106 -6 11 -3 14
9 7 12 -7 35 0 52 17 17 16 45 30 63 30 18 0 27 9 20 20 -7 11 2 20 19 20 17
0 31 -13 31 -30z"/>
<path d="M3825 8595 c-189 -190 -351 -354 -359 -365 -8 -11 149 142 350 340
337 333 373 370 359 370 -3 0 -160 -155 -350 -345z"/>
<path d="M2716 8065 l-534 -6 -6 -564 c-3 -311 -5 -568 -3 -571 2 -4 107 99
234 230 l232 236 669 -670 670 -670 106 0 106 0 1 100 1 100 -671 676 -671
675 232 229 c213 209 251 259 190 245 -12 -2 -262 -7 -556 -10z m132 -198 c7
-16 3 -24 -8 -17 -11 7 -21 -2 -22 -19 -2 -17 -4 -39 -5 -49 -2 -10 -25 -48
-51 -84 -46 -62 -76 -189 -40 -167 10 6 18 2 18 -9 0 -11 -29 -15 -68 -8 -54
8 -83 -1 -140 -44 -40 -30 -72 -47 -73 -37 0 9 -9 1 -21 -18 -11 -19 -35 -35
-54 -35 -29 1 -30 3 -4 20 17 11 21 20 9 20 -22 0 -23 453 -1 475 7 6 12 2 12
-11 0 -12 19 -17 45 -11 25 6 94 15 155 21 60 5 112 11 115 14 16 16 124 -17
133 -41z"/>
<path d="M5680 8073 c0 -7 104 -114 232 -238 l232 -225 -673 -674 -673 -674 6
-106 6 -106 99 -6 98 -6 678 676 677 676 229 -236 229 -236 0 571 0 571 -538
0 c-296 0 -553 5 -570 12 -18 7 -32 7 -32 1z m654 -226 c5 -14 23 -19 39 -13
25 9 25 15 4 28 -18 12 -5 17 39 18 39 0 61 -8 54 -20 -7 -11 2 -20 20 -20 18
0 27 9 20 20 -7 11 -3 20 9 20 11 0 21 -11 21 -25 1 -18 6 -17 18 3 26 40 62
-35 53 -110 -3 -32 3 -75 13 -95 12 -23 12 -33 1 -26 -10 6 -20 -15 -21 -48
-1 -33 6 -55 16 -49 22 14 4 -94 -20 -117 -9 -10 -37 3 -64 30 -50 49 -63 57
-95 57 -10 0 -34 16 -53 35 -25 25 -37 28 -43 10 -20 -59 -59 -21 -62 59 -2
51 -15 91 -33 101 -17 9 -30 29 -30 44 0 14 -14 38 -32 52 -29 25 -28 29 3 52
43 31 130 27 143 -6z"/>
<path d="M3300 7830 l-230 -230 550 -550 c302 -303 554 -550 560 -550 5 0 10
351 10 780 l0 780 -330 0 -331 0 -229 -230z m540 52 c0 -24 99 -41 112 -19 31
51 43 -5 40 -194 -2 -117 3 -216 11 -221 9 -5 8 -29 0 -54 -19 -52 -17 -176 3
-208 8 -13 5 -29 -6 -36 -11 -7 -16 -35 -11 -63 11 -63 -5 -107 -41 -107 -27
0 -36 23 -30 73 2 13 -6 30 -17 37 -13 7 -15 -2 -7 -24 11 -30 9 -32 -17 -11
-17 13 -37 19 -44 11 -7 -7 -13 -2 -13 10 0 34 -64 104 -84 92 -9 -6 -16 -1
-16 11 0 32 -84 121 -115 121 -15 0 -22 9 -15 20 7 11 -2 20 -19 20 -17 0 -31
9 -31 20 0 27 -86 111 -106 105 -10 -4 -12 2 -6 12 6 10 -10 34 -36 53 -67 51
55 285 126 241 11 -6 22 9 26 34 4 28 19 44 41 42 19 -1 30 5 25 14 -13 20 34
31 145 35 47 1 85 -5 85 -14z"/>
<path d="M4809 7280 c-1 -429 1 -780 3 -780 2 0 252 250 556 555 l552 554
-225 226 -224 225 -331 0 -330 0 -1 -780z m491 591 c39 -6 78 -10 88 -9 10 1
26 -13 36 -30 10 -18 32 -32 48 -32 17 0 25 -9 18 -20 -7 -12 2 -14 22 -6 27
10 32 5 22 -21 -8 -22 -3 -33 18 -33 17 0 25 -9 18 -20 -7 -11 -3 -20 9 -20
64 0 62 -105 -2 -163 -35 -31 -58 -57 -49 -57 8 0 8 -10 1 -22 -10 -16 -19
-14 -31 5 -15 23 -17 22 -18 -1 0 -15 -25 -49 -55 -75 -30 -26 -55 -56 -55
-67 0 -11 -9 -22 -20 -23 -11 -2 -85 -71 -163 -153 -79 -81 -153 -143 -163
-136 -25 15 -24 194 1 227 13 16 13 25 1 25 -12 0 -18 113 -16 285 4 346 5
355 30 355 11 0 21 -16 22 -35 3 -33 3 -33 12 0 5 20 17 30 28 24 10 -6 18 -2
18 9 0 12 25 17 55 12 30 -4 87 -13 125 -19z"/>
<path d="M2405 6935 l-225 -226 0 -329 0 -330 780 0 c429 0 780 1 780 3 0 2
-1107 1107 -1109 1107 -1 0 -103 -101 -226 -225z m268 -65 c17 -17 38 -25 49
-19 10 6 18 1 18 -12 0 -28 263 -291 284 -284 8 2 9 -9 3 -25 -7 -19 1 -30 22
-30 18 0 28 -9 21 -20 -7 -11 8 -20 32 -20 25 0 39 -6 31 -13 -7 -7 5 -26 27
-41 22 -16 40 -41 40 -57 0 -16 14 -29 30 -29 39 0 38 -28 -2 -62 -21 -17 -92
-28 -197 -29 -90 -1 -174 -8 -186 -16 -12 -7 -28 -5 -34 6 -8 12 -30 13 -60 2
-26 -10 -52 -13 -59 -6 -18 17 -153 20 -164 2 -31 -51 -188 49 -181 115 4 38
-1 74 -11 80 -9 6 -13 27 -6 47 6 20 12 68 14 108 1 39 10 67 19 61 9 -6 17 1
17 16 1 32 168 196 200 196 12 0 17 9 10 20 -7 12 2 14 22 6 24 -9 30 -5 20
11 -20 33 5 29 41 -7z"/>
<path d="M5795 6605 l-555 -555 790 0 790 0 0 330 0 331 -225 224 c-124 124
-230 225 -235 225 -6 0 -260 -250 -565 -555z m687 195 c22 -1 22 -5 -2 -20
-24 -16 -21 -19 15 -20 25 0 45 -10 45 -22 0 -12 20 -43 45 -69 56 -58 74
-409 21 -409 -16 0 -24 -7 -19 -16 13 -21 -292 -16 -326 5 -18 12 -23 10 -13
-6 19 -30 -13 -30 -44 1 -13 13 -24 15 -24 5 0 -11 -27 -21 -60 -22 -33 -1
-60 6 -60 17 0 10 -11 11 -25 3 -39 -24 -75 -26 -75 -3 0 13 -9 14 -25 2 -14
-10 -36 -17 -50 -15 -14 2 -48 5 -76 7 -29 1 -46 11 -39 22 7 11 4 20 -7 20
-27 0 214 240 243 242 17 1 17 4 -1 11 -14 6 -20 18 -14 28 5 9 23 12 40 6 17
-7 29 1 29 19 0 16 23 44 51 63 27 18 45 42 38 52 -7 11 0 18 15 14 14 -3 24
6 21 20 -3 14 9 25 26 25 17 0 26 9 19 20 -7 11 2 20 20 20 18 0 27 9 20 19
-24 41 118 57 152 18 18 -21 45 -37 60 -37z"/>
<path d="M1869 6635 l-139 -145 145 139 c80 77 145 142 145 145 0 15 -21 -4
-151 -139z"/>
<path d="M1610 6140 l-400 -400 405 -405 405 -405 0 330 0 330 940 -5 941 -6
84 81 85 80 -85 81 -85 80 -939 -5 -940 -6 -6 325 -5 325 -400 -400z m210
-152 c0 -15 9 -28 20 -28 11 0 20 -13 20 -30 0 -16 31 -63 68 -102 63 -67 76
-128 29 -128 -11 0 -14 -8 -8 -18 12 -20 -44 -47 -67 -33 -9 5 -15 -3 -15 -19
0 -16 9 -23 21 -18 12 6 8 -1 -10 -16 -17 -14 -27 -39 -22 -54 5 -17 0 -22
-13 -14 -14 9 -18 3 -12 -14 6 -15 -5 -40 -23 -56 -27 -22 -36 -22 -43 -3 -5
14 -16 21 -25 15 -10 -6 -23 7 -29 28 -7 21 -30 42 -52 48 -21 6 -46 30 -55
54 -9 23 -20 42 -25 40 -27 -8 -80 27 -60 39 16 10 17 30 2 69 -14 35 -14 50
-1 42 11 -7 20 1 20 18 0 31 154 167 176 156 7 -4 19 12 27 34 17 46 77 37 77
-10z"/>
<path d="M6970 6219 l0 -320 -941 1 -940 1 -79 -81 -78 -80 78 -80 79 -81 940
1 941 1 0 -320 c0 -177 5 -321 10 -321 6 0 190 180 410 400 l400 400 -400 400
c-220 220 -404 400 -410 400 -5 0 -10 -144 -10 -321z m350 -273 c0 -6 -16 1
-35 16 -29 23 -29 20 3 -17 20 -24 45 -39 55 -33 9 6 26 -13 37 -41 10 -28 32
-51 49 -51 45 0 83 -80 48 -102 -15 -10 -18 -18 -8 -18 10 0 -11 -31 -48 -69
-37 -38 -76 -67 -88 -65 -12 2 -22 -9 -23 -26 -1 -16 -13 -28 -26 -25 -13 3
-24 -8 -24 -25 0 -19 -19 -30 -50 -30 -27 0 -48 7 -46 15 9 37 -29 143 -55
153 -16 6 -29 25 -29 43 0 17 -8 26 -18 20 -10 -6 -24 5 -31 24 -7 19 -4 37 8
41 11 4 21 20 21 36 0 15 10 26 23 23 12 -3 31 25 41 61 10 36 31 71 47 77 16
6 29 29 29 51 0 38 2 38 60 -4 33 -23 60 -48 60 -54z"/>
<path d="M4424 6009 c41 -42 80 -72 86 -65 7 6 -27 41 -74 77 l-86 66 74 -78z"/>
<path d="M1040 5810 l-69 -71 79 -74 79 -75 -68 75 -69 75 68 70 c37 39 63 70
58 70 -6 0 -41 -32 -78 -70z"/>
<path d="M4760 5810 l-69 -71 78 -74 77 -75 -56 75 -55 75 54 70 c68 89 57 89
-29 0z"/>
<path d="M4419 5466 l-69 -73 85 65 c47 36 85 69 85 74 0 25 -40 -1 -101 -66z"/>
<path d="M2180 5100 l0 -331 226 -225 225 -224 555 551 c304 304 554 554 554
556 0 2 -351 3 -780 3 l-780 0 0 -330z m739 140 c16 10 43 10 61 0 18 -10 74
-15 125 -12 51 2 88 -3 83 -12 -6 -9 -1 -16 11 -16 37 0 23 -36 -42 -104 -34
-36 -56 -55 -49 -41 10 16 4 21 -17 12 -18 -6 -29 -26 -26 -44 3 -18 -6 -31
-20 -28 -14 3 -25 -9 -25 -26 0 -17 -9 -26 -20 -19 -11 7 -20 3 -20 -8 0 -11
-24 -45 -53 -76 -30 -31 -46 -42 -36 -26 14 26 12 26 -17 3 -19 -16 -34 -46
-34 -69 0 -22 -6 -35 -13 -28 -7 7 -30 -6 -50 -29 -20 -24 -37 -36 -37 -28 0
9 -13 5 -30 -9 -16 -13 -24 -35 -17 -47 8 -13 6 -16 -3 -8 -9 8 -29 4 -44 -9
-22 -18 -27 -17 -22 5 3 15 -8 28 -25 28 -35 1 -201 163 -184 180 7 6 3 11 -8
11 -11 0 -19 76 -18 185 1 213 -33 188 279 204 98 6 182 15 188 21 6 6 17 2
23 -9 7 -11 24 -12 40 -1z"/>
<path d="M3305 4760 l-666 -670 -232 236 c-128 129 -233 233 -235 230 -1 -3 1
-260 4 -570 l5 -565 565 -5 c310 -3 567 -5 570 -4 3 2 -101 107 -230 235
l-236 232 663 665 664 666 6 110 7 110 -109 0 -109 0 -667 -670z m-785 -794
c0 -15 13 -20 33 -12 20 8 29 5 21 -7 -7 -12 11 -16 45 -11 32 4 63 -3 72 -17
10 -16 7 -20 -8 -11 -13 8 -23 5 -23 -7 0 -11 10 -21 23 -21 13 0 18 -6 11
-12 -7 -7 1 -26 17 -42 16 -16 24 -37 18 -48 -6 -10 -1 -18 11 -18 12 0 17 -9
10 -20 -7 -11 -3 -20 7 -20 11 0 26 -19 34 -42 17 -55 -18 -77 -121 -77 -59 0
-72 5 -50 19 24 16 21 19 -16 20 -26 0 -42 -7 -37 -16 6 -9 -7 -17 -29 -19
-23 -1 -34 6 -25 19 9 15 4 16 -15 5 -61 -38 -140 -1 -109 50 8 12 4 21 -8 21
-11 0 -21 10 -21 21 0 12 8 17 17 11 9 -6 16 2 16 18 0 16 -8 23 -17 17 -10
-6 -15 31 -12 81 3 51 12 92 19 92 7 0 17 25 23 55 10 51 8 52 -18 16 -23 -32
-28 -33 -28 -6 0 17 11 35 24 40 34 11 136 -49 136 -79z"/>
<path d="M4800 5332 l0 -108 675 -673 675 -673 -237 -230 c-130 -127 -234
-232 -230 -234 4 -2 261 -1 571 2 l565 6 5 564 c3 310 4 567 2 571 -2 4 -107
-100 -234 -230 l-230 -237 -676 675 -676 675 -105 0 -105 0 0 -108z m1836
-1457 c0 -259 -6 -295 -52 -295 -29 1 -30 3 -4 20 26 17 25 19 -3 20 -19 0
-37 -10 -41 -22 -13 -40 -276 -41 -278 -1 -1 21 -5 24 -11 8 -6 -14 -20 -25
-31 -25 -11 0 -15 15 -8 33 12 29 9 29 -36 0 -41 -27 -50 -27 -59 -3 -8 19 -1
24 21 16 26 -10 30 -3 21 32 -10 36 -5 43 21 33 18 -7 26 -7 18 1 -8 8 -1 29
15 46 15 18 28 41 27 52 -1 11 20 32 46 47 l48 26 -48 -10 c-34 -8 -42 -5 -26
11 14 14 15 38 2 71 -11 28 -14 55 -9 61 6 6 11 2 11 -8 0 -16 102 -22 130 -8
9 4 34 8 111 18 12 1 16 11 9 22 -7 11 6 20 29 20 22 0 40 7 39 15 -5 32 3 45
30 45 23 0 28 -45 28 -225z"/>
<path d="M5260 5420 c0 -6 247 -258 550 -560 l550 -550 230 230 230 229 0 331
0 330 -780 0 c-429 0 -780 -5 -780 -10z m820 -166 c0 -9 10 -10 21 -3 23 14
319 15 389 2 22 -4 60 0 83 9 51 18 107 -27 65 -53 -17 -11 -15 -19 7 -31 31
-18 25 -118 -7 -118 -10 0 -18 -18 -18 -40 0 -22 7 -39 15 -38 42 7 44 -7 11
-63 -31 -53 -32 -63 -6 -80 17 -10 20 -19 8 -19 -13 0 -73 -49 -134 -108 -61
-60 -116 -103 -122 -97 -7 6 -12 1 -12 -12 0 -43 -39 -24 -117 56 -43 44 -83
74 -90 67 -7 -7 -13 2 -13 21 0 18 -14 33 -31 33 -17 0 -26 9 -19 20 7 11 -2
20 -19 20 -17 0 -31 14 -31 30 0 17 -7 30 -15 30 -9 0 -51 33 -95 73 -44 40
-62 60 -40 45 39 -27 40 -27 2 17 -20 24 -45 39 -55 33 -9 -6 -17 1 -17 16 0
14 -27 47 -60 73 -33 26 -55 54 -50 63 5 9 -6 22 -25 31 -31 13 -29 16 11 27
68 18 364 15 364 -4z"/>
<path d="M4414 5224 l-75 -76 1 -939 2 -939 -321 -10 -322 -10 401 -400 400
-400 405 405 405 405 -330 0 -330 0 6 939 6 938 -73 82 c-90 99 -84 98 -175 5z
m151 -2037 c20 -24 62 -50 95 -57 42 -9 60 -25 60 -53 0 -36 3 -37 31 -8 41
40 62 41 29 1 -22 -26 -20 -29 7 -18 18 7 33 22 33 34 0 16 6 16 21 1 15 -15
-7 -52 -74 -124 -87 -93 -151 -138 -115 -80 8 14 5 18 -7 10 -12 -7 -16 -31
-11 -54 6 -22 3 -39 -6 -37 -43 7 -66 -5 -78 -43 -8 -23 -27 -38 -47 -35 -41
7 -162 121 -150 141 5 8 -8 15 -29 15 -33 0 -184 154 -184 187 0 5 29 16 65
24 36 8 88 23 115 33 28 10 50 16 51 12 0 -3 27 22 60 56 63 66 78 66 134 -5z"/>
<path d="M3620 4430 l-550 -550 230 -230 229 -230 331 0 330 0 0 780 c0 429
-5 780 -10 780 -6 0 -258 -247 -560 -550z m366 10 c6 -22 2 -35 -9 -28 -10 6
-17 -18 -14 -56 3 -37 -2 -78 -10 -90 -7 -13 -5 -29 6 -35 20 -13 14 -114 -11
-154 -8 -13 -6 -18 6 -11 14 9 20 -65 18 -220 -2 -205 -6 -233 -37 -237 -19
-3 -30 3 -24 13 14 21 -18 24 -39 3 -20 -19 -194 -24 -182 -5 5 9 -2 15 -15
15 -78 -3 -115 8 -115 35 0 16 -11 28 -25 25 -14 -3 -23 7 -20 21 4 15 -2 22
-13 15 -35 -21 -126 111 -113 164 15 58 91 146 91 105 0 -32 21 -14 27 23 5
33 142 177 169 177 10 0 31 16 47 35 25 32 24 33 -13 6 -25 -18 -21 -9 10 23
28 28 57 47 65 42 8 -5 21 8 28 28 21 60 89 124 119 112 21 -7 25 0 15 25 -9
22 -6 31 7 23 12 -8 26 -32 32 -54z"/>
<path d="M4800 4200 l0 -780 335 0 336 0 224 225 225 226 -552 554 c-304 305
-556 555 -560 555 -4 0 -8 -351 -8 -780z m207 294 c-9 -18 -6 -18 13 0 21 19
78 -29 283 -235 142 -142 267 -259 278 -259 12 0 16 -9 9 -20 -7 -11 -5 -20 5
-20 9 0 33 -29 54 -65 20 -36 30 -59 22 -51 -18 16 -71 -28 -58 -49 5 -8 -5
-15 -22 -15 -17 0 -31 -14 -31 -31 0 -17 -8 -26 -19 -20 -10 6 -24 -7 -31 -29
-7 -22 -20 -36 -29 -31 -9 6 -28 -3 -41 -19 -14 -17 -40 -30 -58 -30 -18 0
-53 -14 -76 -30 -25 -18 -48 -22 -55 -11 -12 19 -74 14 -114 -11 -13 -8 -18
-5 -11 6 7 10 0 19 -16 19 -16 0 -24 -7 -18 -16 6 -9 1 -17 -11 -17 -11 0 -21
8 -21 18 0 10 -20 23 -45 29 -51 13 -60 333 -8 333 15 1 14 6 -4 18 -20 12
-26 83 -26 284 0 322 -2 303 23 288 12 -7 15 -23 7 -36z"/>
<path d="M4200 2514 c0 -3 70 -72 155 -155 l155 -149 -149 155 c-139 144 -161
164 -161 149z"/>
</g>
</svg>
