 <svg  version="1.0" xmlns="http://www.w3.org/2000/svg"  width="300.000000pt" height="374.000000pt" viewBox="0 0 300.000000 374.000000"  preserveAspectRatio="xMidYMid meet">  <g transform="translate(0.000000,374.000000) scale(0.050000,-0.050000)" fill="#ffffff" stroke="none"> <path d="M2690 7390 c-70 -16 -125 -19 -131 -8 -27 43 -826 -339 -1029 -492 -66 -50 -123 -81 -127 -70 -15 47 -551 -470 -613 -591 -22 -44 -55 -92 -74 -109 -19 -16 -66 -106 -106 -200 -89 -209 -119 -257 -178 -279 -74 -28 -417 -924 -378 -987 8 -13 12 -272 9 -576 -3 -317 4 -640 17 -760 189 -1734 1611 -3245 3113 -3306 l257 -11 -288 59 c-362 74 -471 125 -650 309 -76 77 -123 115 -104 84 44 -71 -2 -63 -144 24 -48 29 -121 71 -164 93 -71 37 -74 43 -48 79 26 35 23 41 -33 64 -33 14 -104 71 -158 126 -65 67 -115 101 -147 101 -54 0 -173 153 -216 277 -15 42 -29 58 -38 43 -9 -15 -72 57 -167 191 -146 204 -178 269 -132 269 11 0 -11 32 -50 71 -58 57 -67 76 -49 105 18 28 7 60 -59 165 -44 71 -87 156 -94 189 l-14 60 62 -59 c86 -80 91 -60 22 80 -69 138 -159 229 -228 229 -78 0 -258 314 -193 336 13 4 6 37 -19 85 -29 59 -36 99 -27 159 10 60 2 106 -33 185 -66 154 -72 412 -21 925 l43 420 129 266 c141 288 146 304 99 304 -41 0 41 120 220 320 271 303 586 540 718 540 32 0 60 16 74 42 20 38 19 39 -21 18 -73 -39 -65 -9 19 66 111 101 227 156 359 168 61 6 135 24 162 38 47 26 44 27 -38 15 -64 -10 -84 -7 -74 10 8 13 31 23 51 23 20 0 134 49 254 110 205 104 447 172 463 130 3 -8 44 -7 90 4 140 33 639 6 834 -44 702 -182 1288 -834 1423 -1580 26 -146 35 -747 12 -870 -11 -62 -10 -69 6 -32 63 151 25 -112 -44 -301 -32 -88 -58 -126 -109 -156 -38 -22 -69 -51 -71 -65 -1 -14 -5 -62 -7 -105 -5 -86 -33 -116 -346 -372 -155 -126 -253 -166 -162 -65 l48 53 -60 -41 c-33 -23 -78 -62 -100 -87 -46 -51 -221 -138 -280 -139 -22 0 -80 -15 -130 -32 -616 -214 -1500 456 -1500 1137 0 47 -8 72 -20 65 -74 -46 -1 379 101 585 288 585 1128 787 1588 383 39 -34 71 -53 71 -42 0 80 -369 321 -571 373 -383 100 -864 -76 -1052 -385 -25 -41 -61 -85 -79 -99 -54 -39 -111 -142 -169 -305 -30 -83 -64 -163 -76 -178 -12 -15 -26 -125 -30 -244 -18 -532 164 -873 684 -1279 62 -49 113 -95 113 -103 0 -26 313 -114 493 -138 553 -73 1053 100 1491 516 169 161 177 166 161 101 -8 -36 -5 -40 16 -21 14 14 24 58 23 98 -3 69 65 228 96 228 8 0 25 -25 40 -55 l27 -55 15 83 c8 45 42 135 74 200 69 136 124 310 124 391 0 31 9 56 20 56 11 0 21 29 21 65 l2 65 37 -80 37 -80 -11 71 c-6 46 8 124 42 225 62 185 61 174 13 174 -48 0 -81 164 -43 224 18 28 16 46 -7 82 -42 63 -93 214 -72 214 9 0 32 -23 50 -52 48 -73 54 -53 21 73 -16 60 -30 133 -30 162 0 56 -78 171 -79 118 -2 -73 -63 38 -67 121 -4 82 -1 88 45 83 26 -3 56 6 65 20 35 53 184 -277 267 -593 20 -76 40 -129 44 -117 8 23 -36 209 -94 395 -56 178 -72 354 -29 300 32 -39 32 -38 19 20 -53 228 -361 685 -625 929 -217 199 -561 435 -426 291 26 -27 38 -50 27 -50 -35 0 -185 121 -197 159 -19 61 -122 86 -240 59 -96 -21 -109 -19 -211 33 -181 94 -664 249 -654 211 7 -28 -25 -32 -263 -35 -248 -4 -267 -1 -212 24 56 27 46 28 -135 24 -224 -6 -218 -8 -120 44 92 48 44 52 -145 11z m189 -246 c6 -9 47 -18 91 -21 44 -3 83 -12 86 -22 3 -9 23 -12 45 -7 21 6 39 1 39 -10 0 -22 27 -20 87 6 24 10 43 6 55 -12 9 -15 18 -18 18 -6 0 12 39 20 95 19 52 -1 122 5 155 13 74 20 195 0 177 -30 -9 -13 -1 -16 20 -8 18 7 33 5 33 -4 0 -10 14 -23 31 -30 18 -6 26 -3 19 8 -7 11 2 20 19 20 17 0 31 -12 31 -27 0 -14 13 -26 29 -26 16 0 25 7 19 16 -6 10 -1 17 11 17 11 0 21 -8 21 -18 0 -10 23 -23 51 -30 28 -7 47 -20 42 -28 -5 -8 24 -16 64 -19 40 -3 76 -15 80 -25 3 -11 24 -20 45 -20 21 0 38 -10 38 -22 0 -25 118 -19 155 8 29 22 92 2 76 -24 -9 -15 55 -43 119 -51 11 -2 18 -14 15 -27 -3 -13 2 -23 10 -21 29 7 224 -97 210 -112 -8 -8 -6 -12 5 -8 50 14 148 -24 160 -62 7 -23 20 -37 29 -32 9 6 21 -7 27 -29 7 -29 20 -36 45 -27 24 10 31 6 21 -10 -9 -14 -1 -23 22 -23 30 -1 31 -4 6 -20 -26 -17 -25 -19 5 -20 19 0 35 -9 35 -20 0 -11 12 -20 26 -20 14 0 37 -31 51 -70 14 -38 35 -70 47 -70 22 0 116 -93 116 -115 0 -7 18 -31 39 -54 22 -23 42 -71 45 -106 2 -36 18 -69 35 -76 27 -10 26 -14 -4 -31 -19 -11 -35 -33 -35 -49 0 -16 -8 -29 -18 -29 -31 0 -143 -122 -131 -142 6 -10 -9 -19 -35 -20 -34 -2 -37 -5 -11 -12 31 -8 52 -66 24 -66 -23 0 -69 58 -69 87 0 17 -14 44 -31 62 -18 17 -24 31 -15 31 9 0 5 7 -7 15 -13 9 -27 29 -30 45 -4 17 -27 50 -51 74 -31 29 -37 46 -20 53 14 6 11 10 -9 11 -30 2 -56 35 -49 63 1 7 -11 27 -28 45 -64 70 -77 90 -65 102 6 7 1 12 -13 12 -13 0 -19 9 -12 20 7 11 -2 20 -20 20 -18 0 -27 9 -20 20 7 11 -2 20 -20 20 -18 0 -27 9 -20 20 7 11 0 20 -15 20 -16 0 -40 23 -55 50 -15 28 -35 50 -45 50 -9 0 -11 10 -3 23 8 13 5 18 -6 10 -12 -7 -45 10 -73 36 -29 27 -53 44 -53 39 0 -6 -10 -4 -22 3 -16 10 -15 18 2 29 16 10 3 24 -38 42 -34 15 -62 35 -62 43 0 8 -13 15 -29 15 -15 0 -40 12 -55 26 -26 26 -254 140 -322 162 -20 7 -32 19 -26 29 6 9 -13 13 -42 7 -39 -7 -48 -3 -36 16 12 20 5 23 -27 15 -24 -6 -38 -3 -32 7 11 17 -9 20 -146 25 -30 1 -60 9 -66 18 -19 26 -102 36 -86 11 9 -16 2 -18 -25 -6 -21 9 -63 16 -93 14 -30 -1 -55 6 -55 17 0 10 -10 19 -21 19 -12 0 -16 -9 -9 -20 7 -11 -2 -20 -20 -20 -18 0 -28 7 -23 15 12 19 -99 20 -118 1 -8 -8 -25 -9 -37 -1 -37 23 -95 27 -82 5 7 -11 -2 -20 -20 -20 -18 0 -27 9 -20 20 7 11 3 20 -9 20 -11 0 -21 -9 -21 -21 0 -13 -54 -18 -150 -12 -93 6 -150 1 -150 -11 0 -12 -21 -15 -50 -8 -29 7 -50 4 -50 -8 0 -11 -7 -18 -15 -16 -33 9 -165 -27 -165 -45 0 -10 -13 -19 -28 -19 -16 0 -32 -7 -35 -16 -8 -18 -273 -146 -316 -153 -16 -2 -32 -15 -37 -28 -4 -13 -16 -18 -27 -11 -22 14 -264 -72 -248 -88 6 -5 -9 -27 -32 -47 -41 -35 -71 -44 -137 -40 -20 1 -22 -2 -5 -9 32 -15 32 -48 0 -48 -14 0 -37 -18 -50 -40 -14 -22 -39 -40 -55 -40 -17 0 -30 -10 -30 -21 0 -12 -8 -16 -17 -11 -10 6 -35 -11 -55 -38 -21 -28 -49 -50 -63 -50 -14 0 -25 -10 -25 -22 0 -13 -17 -18 -39 -13 -27 7 -35 2 -27 -17 9 -24 -9 -32 -65 -27 -6 0 -51 -40 -99 -90 -49 -50 -99 -91 -113 -91 -13 0 -18 -5 -12 -12 7 -7 -9 -36 -36 -65 -27 -29 -49 -59 -49 -68 0 -8 -17 -15 -38 -15 -20 0 -48 -13 -62 -30 -34 -41 -103 -40 -87 2 10 24 16 26 29 5 9 -15 15 9 14 59 0 59 11 96 37 120 20 19 40 52 43 74 3 22 29 60 56 85 28 25 44 45 35 45 -8 0 3 14 24 31 22 18 26 26 9 19 -16 -7 8 21 55 63 47 43 85 90 85 105 0 16 5 23 12 17 7 -7 34 11 60 39 26 29 48 47 48 41 0 -6 38 27 84 72 46 46 82 90 80 98 -2 8 8 15 22 15 15 0 62 27 105 59 44 33 89 60 101 60 12 1 43 19 68 41 25 22 59 40 74 40 16 0 22 10 14 23 -8 13 -3 19 14 13 15 -5 38 4 51 21 18 26 28 27 53 6 18 -15 35 -17 42 -6 7 11 1 23 -12 28 -29 9 90 74 174 94 34 8 57 26 54 40 -4 17 8 22 35 15 23 -5 46 -2 52 8 7 10 20 13 30 7 11 -6 19 -1 19 11 0 12 8 17 18 11 10 -6 22 -2 25 9 4 11 32 22 62 24 30 3 59 18 65 33 12 32 386 20 409 -13z m-2139 -1561 c0 -9 -21 -27 -46 -41 -25 -13 -54 -43 -65 -67 -26 -57 -62 -65 -74 -17 -6 24 -2 39 11 36 12 -2 25 14 30 36 13 59 144 108 144 53z m4675 -161 c-8 -29 -1 -37 26 -32 20 4 41 -6 47 -22 7 -17 3 -25 -8 -18 -23 14 -25 6 -8 -38 7 -18 23 -32 36 -32 13 0 26 -31 29 -70 2 -38 -5 -70 -16 -70 -12 0 -21 -37 -21 -81 0 -45 -8 -76 -17 -71 -22 14 -24 114 -4 142 50 66 20 161 -33 108 -12 -12 -18 6 -17 50 1 38 -7 68 -18 66 -12 -2 -24 21 -27 51 -4 33 3 55 17 55 13 0 19 -17 14 -38z m-4893 -127 c-4 -78 -13 -168 -19 -196 -2 -6 -23 -33 -48 -60 -25 -26 -43 -51 -40 -54 3 -3 5 -30 4 -60 0 -51 -2 -52 -28 -18 -27 35 -29 35 -49 -4 -32 -58 -27 -77 7 -32 28 37 30 37 30 -16 1 -30 -8 -55 -19 -55 -11 0 -21 -20 -21 -45 -2 -43 -3 -43 -20 -5 -17 37 -18 36 -16 -10 5 -156 -4 -230 -26 -193 -29 50 -30 223 -2 257 12 15 26 51 29 79 4 29 18 66 32 82 13 16 18 35 10 42 -7 7 -2 13 12 13 13 0 20 8 14 17 -14 23 49 183 72 183 10 0 13 8 7 18 -14 22 47 171 63 154 7 -6 10 -50 8 -97z m5021 -484 c-4 -55 5 -114 25 -153 41 -83 40 -131 -3 -156 -28 -16 -29 -21 -5 -22 20 0 22 -6 8 -15 -12 -8 -27 -28 -34 -45 -6 -16 -10 -3 -9 30 1 33 16 78 34 100 28 36 28 37 -2 14 -40 -31 -60 4 -37 66 8 22 7 61 -3 86 -25 68 -21 159 8 171 14 5 25 11 25 11 0 1 -3 -38 -7 -87z m-5020 -2329 c-11 -7 2 -23 29 -35 31 -15 48 -16 48 -3 0 12 13 10 31 -5 17 -14 27 -36 21 -50 -6 -16 4 -21 29 -14 34 8 39 -1 39 -69 0 -44 6 -86 14 -93 8 -8 16 -29 19 -48 4 -31 27 -87 69 -170 10 -19 18 -52 18 -74 0 -21 9 -44 20 -51 37 -23 21 -50 -30 -50 -37 0 -50 11 -50 40 0 22 -11 38 -25 35 -14 -3 -22 10 -19 30 3 20 -9 41 -26 48 -18 7 -27 25 -21 41 6 15 2 23 -9 16 -11 -7 -20 2 -20 20 0 18 -8 27 -18 21 -10 -6 -16 15 -14 47 3 40 -4 55 -22 48 -16 -7 -26 6 -26 32 0 23 -9 42 -20 42 -11 0 -20 22 -20 48 0 27 -8 52 -17 55 -9 4 -23 45 -30 91 -11 73 -9 83 19 73 18 -7 23 -18 11 -25z m368 -711 c40 -39 36 -91 -6 -89 -21 1 -25 5 -10 11 14 6 25 20 25 32 0 12 -6 16 -13 9 -15 -16 -67 22 -67 48 0 27 40 21 71 -11z"/> <path d="M194 5805 c-6 -30 -18 -73 -25 -95 -13 -35 -8 -33 36 10 71 70 90 140 39 140 -27 0 -43 -18 -50 -55z"/> <path d="M25 5253 c-14 -30 -24 -88 -23 -129 l2 -74 28 90 c36 114 31 197 -7 113z"/> <path d="M4444 4447 c-19 -34 12 -147 40 -147 9 0 16 41 16 90 0 92 -24 116 -56 57z"/> <path d="M5813 4078 c-5 -15 -28 -111 -52 -212 -23 -101 -69 -248 -101 -325 -62 -152 -64 -188 -3 -66 73 146 198 596 173 622 -5 5 -13 -4 -17 -19z"/> <path d="M4339 3898 c-44 -93 -108 -156 -133 -131 -6 6 13 52 42 102 69 118 40 119 -35 1 -58 -92 -57 -116 8 -150 42 -23 109 62 156 198 36 105 15 94 -38 -20z"/> <path d="M3540 3515 c0 -20 72 -48 165 -65 55 -11 80 -4 125 35 l55 47 -172 -1 c-95 0 -173 -8 -173 -16z"/> <path d="M2340 3494 c0 -21 99 -214 110 -214 5 0 1 21 -9 47 -22 57 -101 189 -101 167z"/> <path d="M2220 3314 c0 -50 144 -279 210 -334 50 -41 35 -8 -80 184 -132 219 -130 216 -130 150z"/> <path d="M2401 3213 c-2 -42 199 -264 327 -362 387 -294 919 -456 1212 -369 89 27 89 27 -160 40 -352 18 -538 74 -648 195 -20 23 -45 37 -54 32 -35 -22 -215 94 -387 249 -85 77 -58 34 68 -107 128 -143 -5 -29 -183 157 -96 100 -175 174 -175 165z"/> </g> </svg> 