<?xml version="1.0" standalone="no"?>
<!DOCTYPE svg PUBLIC "-//W3C//DTD SVG 20010904//EN"
 "http://www.w3.org/TR/2001/REC-SVG-20010904/DTD/svg10.dtd">
<svg version="1.0" xmlns="http://www.w3.org/2000/svg"
 width="900.000000pt" height="900.000000pt" viewBox="0 0 900.000000 900.000000"
 preserveAspectRatio="xMidYMid meet">
<metadata>
Created by potrace 1.10, written by Peter Selinger 2001-2011
</metadata>
<g transform="translate(0.000000,900.000000) scale(0.100000,-0.100000)"
fill="#ffffff" stroke="none">
<path d="M4145 7750 c-27 -5 -88 -13 -135 -18 -80 -10 -108 -15 -220 -42 -25
-6 -64 -15 -87 -20 -23 -5 -66 -17 -95 -26 -128 -40 -234 -75 -253 -83 -11 -5
-45 -19 -75 -31 -157 -63 -327 -149 -474 -239 -115 -71 -242 -163 -371 -269
-111 -92 -330 -312 -410 -412 -33 -41 -68 -84 -77 -94 -10 -11 -30 -38 -45
-60 -15 -23 -30 -43 -33 -46 -26 -26 -172 -266 -237 -390 -21 -41 -56 -115
-77 -165 -21 -49 -42 -99 -47 -110 -13 -28 -69 -184 -79 -220 -19 -64 -42
-152 -55 -205 -7 -30 -15 -62 -18 -70 -8 -24 -45 -246 -59 -360 -10 -82 -13
-414 -13 -1515 0 -1335 1 -1414 18 -1480 31 -118 89 -225 169 -310 87 -94 153
-139 278 -194 36 -16 106 -32 180 -41 85 -12 2555 -11 2730 0 161 10 318 27
380 40 25 5 68 14 95 19 46 9 97 21 215 51 281 71 642 235 905 410 334 223
588 464 815 772 50 67 94 128 98 133 4 6 38 60 74 120 98 164 167 301 228 455
12 30 26 64 31 75 11 26 38 102 49 140 5 17 17 55 26 85 33 111 65 257 85 380
5 36 15 97 22 135 17 99 16 662 -1 780 -33 224 -64 376 -106 515 -9 30 -21 73
-27 95 -6 22 -14 44 -20 49 -5 6 -9 17 -9 25 0 9 -7 29 -15 45 -8 15 -15 33
-15 38 0 5 -9 30 -21 56 -11 26 -24 56 -29 67 -47 112 -147 303 -200 385 -6 8
-13 22 -17 30 -10 23 -160 240 -172 250 -4 3 -31 37 -61 75 -146 189 -406 436
-611 581 -113 80 -179 124 -186 124 -3 0 -14 7 -23 15 -46 42 -408 219 -550
270 -196 70 -248 84 -524 147 -27 6 -80 15 -118 19 -37 5 -101 13 -140 19 -85
11 -619 11 -693 0z m1550 -756 c154 -33 231 -68 300 -139 80 -82 95 -120 95
-248 0 -90 -3 -113 -22 -149 -24 -47 -121 -148 -142 -148 -8 0 -19 -7 -26 -15
-7 -8 -25 -15 -40 -15 -15 0 -40 -7 -56 -15 -30 -15 -68 -13 -191 11 -320 63
-652 -74 -831 -341 -42 -63 -82 -145 -82 -167 0 -8 -5 -19 -10 -24 -26 -26
-33 -135 -37 -532 -3 -323 -1 -420 9 -444 24 -54 43 -57 398 -61 329 -4 376
-9 412 -45 7 -7 16 -12 21 -12 21 0 117 -117 117 -141 0 -7 7 -21 16 -31 14
-14 17 -39 16 -125 0 -119 -6 -137 -75 -231 -93 -126 -166 -143 -607 -141
l-305 1 -6 -504 c-3 -309 -10 -513 -16 -528 -6 -14 -14 -47 -17 -75 -15 -100
-61 -227 -138 -380 -34 -69 -101 -179 -118 -195 -3 -3 -29 -34 -57 -70 -141
-178 -356 -340 -568 -430 -27 -11 -57 -24 -65 -29 -9 -5 -31 -12 -50 -16 -19
-4 -41 -11 -50 -16 -37 -20 -241 -55 -385 -65 -95 -7 -277 13 -385 42 -74 21
-168 67 -205 101 -45 41 -95 108 -95 128 0 9 -7 23 -15 31 -20 21 -21 170 -1
216 8 18 17 40 21 48 11 27 30 55 50 76 31 31 102 84 113 84 5 0 23 7 38 15
34 18 138 19 269 5 50 -6 106 -12 125 -14 46 -5 219 19 277 39 209 71 374 219
468 420 68 145 70 163 70 637 l0 426 -24 26 -24 26 -286 0 c-383 0 -450 13
-543 103 -90 88 -122 167 -116 285 7 144 94 266 228 321 27 11 111 15 390 18
195 2 360 3 367 3 9 0 13 115 16 493 4 498 9 559 47 692 33 114 92 260 132
326 15 25 28 49 28 52 0 9 87 136 126 184 57 70 195 202 269 257 63 47 219
146 230 146 3 0 33 13 67 29 211 96 420 134 688 124 63 -3 147 -11 185 -19z"/>
</g>
</svg>
