<?xml version="1.0" standalone="no"?>
<!DOCTYPE svg PUBLIC "-//W3C//DTD SVG 20010904//EN"
 "http://www.w3.org/TR/2001/REC-SVG-20010904/DTD/svg10.dtd">
<svg version="1.0" xmlns="http://www.w3.org/2000/svg"
 width="231.000000pt" height="240.000000pt" viewBox="0 0 231.000000 240.000000"
 preserveAspectRatio="xMidYMid meet">
<metadata>
Created by potrace 1.10, written by Peter Selinger 2001-2011
</metadata>
<g transform="translate(0.000000,240.000000) scale(0.050000,-0.050000)"
fill="#ffffff" stroke="none">
<path d="M700 3510 l0 -850 480 0 480 0 0 260 0 260 580 0 580 0 0 590 0 590
-1060 0 -1060 0 0 -850z m1060 650 c619 0 799 6 805 25 15 44 39 -660 26 -741
l-14 -78 -420 -4 c-478 -5 -478 -5 -592 -129 -75 -81 -85 -104 -86 -188 -1
-154 -16 -163 -291 -170 l-238 -6 245 -5 c332 -6 327 -44 -5 -44 l-250 0 2
695 c0 382 6 684 11 670 8 -19 188 -25 807 -25z m-860 -650 c0 -407 -7 -630
-20 -630 -13 0 -20 223 -20 630 0 407 7 630 20 630 13 0 20 -223 20 -630z
m1760 250 c0 -240 -7 -380 -20 -380 -13 0 -20 140 -20 380 0 240 7 380 20 380
13 0 20 -140 20 -380z"/>
<path d="M3020 2360 l0 -2000 480 0 480 0 0 2000 0 2000 -480 0 -480 0 0
-2000z m740 0 l0 -1780 -270 0 -270 0 0 1780 0 1780 270 0 270 0 0 -1780z"/>
<path d="M1860 1670 l0 -1310 480 0 480 0 0 1310 0 1310 -480 0 -480 0 0
-1310z m640 1110 c0 -29 55 -25 67 5 5 14 11 -467 11 -1069 1 -706 9 -1098 22
-1106 13 -8 20 353 20 1069 0 707 7 1081 20 1081 13 0 20 -377 20 -1090 0
-1077 0 -1090 -40 -1090 -24 0 -41 -14 -42 -35 -1 -21 -5 -25 -11 -10 -12 30
-67 34 -67 5 0 -12 -77 -20 -190 -20 -156 0 -190 5 -190 30 0 17 -13 30 -30
30 -26 0 -30 134 -30 1090 0 956 4 1090 30 1090 17 0 30 9 30 20 0 12 77 20
190 20 113 0 190 -8 190 -20z"/>
<path d="M700 1400 l0 -1060 480 0 480 0 0 1060 0 1060 -480 0 -480 0 0 -1060z
m740 880 c0 -12 -98 -22 -245 -24 l-245 -5 240 -6 241 -6 24 -79 c36 -115 36
-1520 0 -1520 -17 -1 -15 -7 5 -20 77 -51 -337 -88 -538 -48 l-62 13 0 828 c0
538 7 827 20 827 13 0 21 -288 24 -815 l4 -815 13 840 c7 462 14 842 16 845
10 17 503 2 503 -15z m0 -1760 c0 -12 -97 -20 -250 -20 -153 0 -250 8 -250 20
0 12 97 20 250 20 153 0 250 -8 250 -20z"/>
</g>
</svg>
