<?xml version="1.0" standalone="no"?>
<!DOCTYPE svg PUBLIC "-//W3C//DTD SVG 20010904//EN"
 "http://www.w3.org/TR/2001/REC-SVG-20010904/DTD/svg10.dtd">
<svg version="1.0" xmlns="http://www.w3.org/2000/svg"
 width="300.000000pt" height="288.000000pt" viewBox="0 0 300.000000 288.000000"
 preserveAspectRatio="xMidYMid meet">
<metadata>
Created by potrace 1.10, written by Peter Selinger 2001-2011
</metadata>
<g transform="translate(0.000000,288.000000) scale(0.050000,-0.050000)"
fill="#ffffff" stroke="none">
<path d="M228 5362 c-4 -5 -8 -349 -8 -765 l0 -757 335 0 335 0 1 -925 c1
-890 2 -931 45 -1085 185 -673 732 -1153 1456 -1280 144 -25 431 -30 1721 -30
l1547 0 0 1576 c0 979 -8 1639 -21 1745 -79 638 -530 1178 -1169 1399 -302
105 -302 105 -1560 113 -649 4 -1516 9 -1927 12 -410 3 -750 1 -755 -3z m312
-222 c28 -18 26 -21 -18 -27 -10 -2 -36 -25 -59 -53 -23 -27 -42 -39 -42 -27
-1 13 -6 36 -12 52 -6 17 8 37 35 50 58 28 60 28 96 5z m2260 -146 c1396 -7
1347 -2 1670 -153 301 -141 530 -357 678 -641 147 -280 140 -205 147 -1658 l7
-1308 -51 -104 c-53 -109 -141 -182 -269 -227 -106 -36 -2368 -32 -2542 5
-476 102 -854 380 -1048 774 -145 293 -152 358 -152 1370 0 694 -6 882 -28
934 -63 149 -247 251 -484 269 l-148 11 0 364 c0 200 4 367 8 372 5 4 223 6
485 3 262 -3 1040 -8 1727 -11z m-2326 -789 c-8 -16 48 -73 78 -78 133 -26
153 -107 25 -107 -116 0 -198 60 -155 113 17 20 17 35 -2 57 -21 25 -18 30 19
30 24 0 40 -7 35 -15z m4963 -3325 l4 -181 -66 4 c-37 3 -79 -3 -94 -12 -20
-13 -23 -10 -11 11 12 22 10 23 -9 5 -16 -15 -45 -17 -82 -7 -31 9 -60 12 -65
7 -5 -5 -14 4 -20 19 -7 18 17 44 65 71 42 23 87 56 101 73 14 16 42 30 64 30
21 0 33 9 26 20 -7 12 -21 15 -31 9 -11 -6 -19 -3 -19 7 0 11 19 24 42 30 27
7 37 20 27 36 -10 15 -7 19 8 10 15 -9 23 1 23 28 0 136 34 -10 37 -160z"/>
<path d="M1640 3375 c1 -1235 7 -1333 97 -1509 111 -219 322 -399 548 -469
143 -44 1760 -57 1959 -15 345 73 643 371 717 715 46 216 15 1475 -40 1613
-170 427 -764 594 -1091 307 l-67 -59 -91 69 c-357 273 -903 110 -1075 -322
-44 -109 -46 -146 -53 -690 l-7 -575 232 0 231 0 0 531 c0 651 27 729 255 729
253 0 289 -96 281 -750 l-6 -511 226 5 226 6 4 540 c5 650 28 710 268 710 246
0 266 -66 266 -855 l0 -657 -50 -101 c-133 -266 -241 -289 -1257 -274 -1219
19 -1133 -102 -1133 1581 l0 1146 -220 0 -220 0 0 -1165z m2809 583 c12 -11
-2 -18 -35 -18 -30 0 -54 -7 -54 -16 0 -24 147 -19 165 5 9 13 15 9 15 -10 0
-17 -11 -43 -25 -58 -20 -22 -20 -24 1 -12 65 37 249 -113 212 -172 -6 -10 -1
-17 11 -17 11 0 21 -13 21 -30 0 -16 10 -30 21 -30 12 0 15 -11 6 -25 -14 -22
-25 -395 -11 -395 3 0 12 18 20 41 10 26 15 3 15 -70 0 -60 -7 -99 -15 -85
-19 29 -20 11 -20 -266 0 -260 7 -292 24 -110 9 102 13 56 13 -170 1 -170 -5
-278 -11 -240 -17 96 -37 36 -31 -90 2 -55 -3 -109 -12 -120 -16 -20 -19 -32
-19 -70 0 -11 -15 -20 -32 -20 -28 0 -29 -5 -5 -34 24 -30 23 -32 -11 -19 -29
11 -33 8 -16 -12 25 -30 -60 -155 -105 -155 -15 0 -32 -20 -40 -45 -13 -44
-14 -44 -32 -5 -17 35 -19 33 -12 -13 5 -43 0 -52 -30 -46 -20 4 -37 -3 -37
-14 0 -12 -13 -16 -28 -10 -16 6 -34 -4 -41 -22 -8 -22 -19 -25 -33 -11 -27
27 -150 0 -143 -31 6 -28 -16 -29 -85 -3 -35 13 -48 13 -40 0 7 -12 -20 -20
-70 -20 -61 0 -78 7 -67 25 10 18 5 17 -18 -2 -18 -14 -43 -20 -56 -12 -40 24
-219 26 -219 2 0 -14 -7 -13 -18 4 -18 29 -40 29 -76 0 -34 -29 -984 -24
-1019 5 -18 16 -27 16 -27 2 0 -12 -36 -21 -80 -20 -77 1 -106 23 -55 42 14 5
-11 15 -55 23 -103 18 -170 51 -170 83 0 14 -10 32 -23 40 -15 9 -18 5 -8 -14
8 -15 -27 14 -77 66 -62 63 -92 111 -92 146 0 29 -8 47 -18 41 -16 -10 -14 58
6 204 8 53 -41 62 -54 10 -5 -19 -9 6 -9 55 0 50 4 70 9 45 5 -27 23 -45 45
-45 36 0 60 -74 64 -195 1 -25 10 -45 20 -45 11 0 14 -9 8 -19 -7 -10 6 -28
27 -40 22 -12 45 -40 52 -62 8 -23 18 -38 23 -33 5 6 48 -27 95 -73 59 -57
100 -82 134 -79 26 3 37 0 23 -6 -35 -16 -31 -48 5 -48 17 0 30 11 30 25 0 15
6 17 15 5 9 -12 240 -22 605 -24 772 -6 891 -11 600 -26 -218 -11 -213 -12
110 -13 187 0 291 5 230 11 l-110 12 143 16 c78 9 168 10 200 3 39 -8 48 -6
30 7 -30 21 3 55 35 35 9 -6 29 3 43 20 14 17 37 26 51 21 14 -5 36 3 49 19
13 16 41 29 63 29 21 0 33 9 26 20 -7 11 -3 20 9 20 12 0 38 27 58 60 20 33
42 54 50 47 7 -8 13 2 13 21 0 19 15 63 34 98 19 35 32 76 29 90 -7 37 37 86
62 71 13 -8 15 -3 7 10 -8 13 -23 19 -32 13 -10 -6 -18 55 -18 136 0 81 -1
156 -3 166 -9 45 3 109 18 100 9 -6 16 2 16 18 0 16 -6 24 -14 19 -12 -7 -26
409 -20 571 1 17 1 55 1 86 -1 41 6 53 25 42 19 -12 18 -7 -2 17 -14 18 -21
42 -14 53 6 10 3 24 -7 31 -10 6 -16 42 -15 81 2 42 -6 70 -20 70 -32 0 -50
55 -21 68 13 6 9 9 -9 6 -34 -4 -157 110 -157 146 0 11 -19 20 -41 20 -28 0
-36 -8 -27 -25 8 -14 -2 -10 -24 8 -25 22 -57 30 -96 22 -41 -7 -54 -4 -44 12
8 13 5 23 -7 23 -11 0 -21 -9 -21 -20 0 -11 -16 -20 -36 -20 -20 0 -48 -11
-63 -25 -21 -20 -24 -20 -13 0 9 15 2 25 -16 25 -18 0 -26 -12 -20 -27 5 -15
-6 -39 -25 -55 -30 -24 -32 -24 -17 2 10 17 -9 8 -43 -20 -34 -27 -59 -55 -55
-62 4 -7 -11 -30 -31 -53 -21 -22 -33 -46 -26 -53 6 -7 2 -12 -10 -12 -26 0
-25 35 -25 -475 -1 -327 -6 -405 -28 -405 -22 0 -27 52 -24 250 2 138 -4 250
-12 250 -13 0 -28 -435 -17 -515 1 -14 -6 -25 -16 -25 -15 0 -24 209 -26 570
0 11 1 43 3 70 8 106 -6 280 -23 280 -9 0 -17 14 -17 30 0 17 -8 30 -19 30
-10 0 -44 36 -75 80 -31 43 -68 79 -83 80 -16 0 -22 12 -16 30 15 39 -284 44
-326 5 -22 -20 -25 -19 -16 7 9 25 1 30 -37 22 -42 -7 -45 -14 -23 -40 14 -18
15 -26 3 -18 -13 7 -39 -9 -59 -35 -20 -27 -44 -44 -53 -39 -9 6 -16 -4 -16
-21 0 -28 -23 -40 -65 -33 -8 1 -15 -30 -15 -69 0 -39 -7 -67 -16 -61 -9 5
-13 -35 -9 -89 5 -61 0 -100 -13 -101 -40 -5 -52 -9 -72 -21 -20 -14 -19 165
2 262 9 39 15 43 29 20 13 -21 18 -12 19 34 0 37 12 67 30 74 17 7 30 30 30
53 0 29 22 51 69 71 37 15 73 36 79 45 6 10 38 13 71 8 37 -5 61 0 61 14 0 12
-19 22 -41 22 -23 0 -37 7 -31 16 15 26 386 30 401 5 8 -13 -11 -21 -51 -21
-78 0 -66 -19 20 -33 37 -5 62 -1 62 12 0 11 14 21 31 21 17 0 26 -9 19 -20
-7 -11 4 -26 24 -34 20 -7 41 -20 47 -29 33 -49 283 -32 264 18 -9 24 -4 26
29 8 29 -15 50 -14 78 3 21 14 62 24 92 22 30 -1 50 6 44 15 -6 9 -28 17 -50
17 -71 0 -24 31 55 37 41 3 77 7 80 9 12 12 220 -12 236 -28z m-1635 -681 c3
-32 -5 -54 -17 -52 -12 3 -25 -6 -28 -20 -3 -15 -1 -17 4 -5 16 32 47 2 47
-45 0 -23 -6 -36 -13 -29 -7 8 -25 4 -40 -9 -30 -24 -34 -12 -28 93 7 127 67
181 75 67z m6 -223 c-1 -32 -5 -37 -18 -17 -13 21 -19 20 -28 -5 -7 -18 -3
-29 9 -27 30 7 55 -85 37 -135 -8 -22 -7 -64 1 -93 17 -61 8 -77 -45 -77 -34
0 -37 14 -32 125 4 91 13 124 32 120 15 -4 21 3 14 15 -7 11 -21 15 -31 9 -28
-17 -23 89 6 120 32 35 55 20 55 -35z"/>
<path d="M3753 3487 c-7 -8 -12 -55 -10 -105 l2 -92 15 100 c15 106 14 118 -7
97z"/>
<path d="M2545 1605 c63 -4 167 -4 230 0 63 4 12 7 -115 7 -126 0 -178 -3
-115 -7z"/>
<path d="M2906 1608 c5 -6 101 -10 213 -10 155 1 199 -5 188 -24 -9 -15 -3
-14 19 3 51 42 50 42 -198 41 -128 0 -228 -5 -222 -10z"/>
</g>
</svg>
