<?xml version="1.0" standalone="no"?>
<!DOCTYPE svg PUBLIC "-//W3C//DTD SVG 20010904//EN"
 "http://www.w3.org/TR/2001/REC-SVG-20010904/DTD/svg10.dtd">
<svg version="1.0" xmlns="http://www.w3.org/2000/svg"
 width="320.000000pt" height="320.000000pt" viewBox="0 0 320.000000 320.000000"
 preserveAspectRatio="xMidYMid meet">
<metadata>
Created by potrace 1.10, written by Peter Selinger 2001-2011
</metadata>
<g transform="translate(0.000000,320.000000) scale(0.050000,-0.050000)"
fill="#ffffff" stroke="none">
<path d="M5150 6265 c-674 -31 -1271 -192 -1566 -423 -111 -87 -244 -277 -244
-349 1 -124 27 -119 149 27 127 153 126 152 181 113 63 -47 -118 -313 -214
-313 -51 0 42 -91 139 -135 l112 -51 -58 -47 c-194 -155 -413 -131 -637 67
-83 74 -87 86 -32 86 62 0 107 86 91 174 -53 279 -426 566 -736 566 -184 0 25
-381 339 -620 127 -96 137 -120 52 -120 -109 0 -240 -94 -341 -245 -142 -212
-247 -262 -553 -267 -384 -5 -489 -100 -519 -471 -21 -249 -122 -386 -392
-528 -259 -136 -294 -254 -169 -574 116 -294 101 -447 -66 -690 -137 -199
-109 -409 72 -533 270 -186 337 -302 361 -626 27 -368 99 -454 399 -478 271
-22 442 -130 553 -351 150 -294 327 -353 654 -214 245 105 390 95 591 -38 258
-171 449 -160 606 35 237 296 298 330 646 357 356 29 426 92 481 432 46 283
126 396 388 549 275 161 315 288 185 595 -109 258 -96 408 54 656 149 247 107
431 -141 615 -248 184 -303 292 -298 592 5 334 -57 411 -341 428 -285 18 -498
167 -665 465 -90 161 -91 157 33 186 246 59 465 196 885 552 292 249 514 413
661 489 l100 52 -130 14 c-158 17 -493 30 -630 23z m130 -214 c0 -16 -12 -36
-26 -45 -15 -9 -39 -35 -55 -58 -16 -24 -38 -46 -49 -49 -11 -4 -47 -32 -81
-63 -210 -191 -547 -415 -746 -496 -73 -30 -169 -74 -213 -97 -88 -48 -198
-55 -284 -20 -31 13 -61 23 -67 22 -24 -4 -17 101 10 154 16 31 24 62 17 68
-7 7 -2 13 10 13 13 0 17 14 10 33 -7 19 -5 28 6 22 10 -6 18 14 18 45 0 31
-6 53 -13 48 -7 -4 -23 20 -35 54 -18 51 -16 60 7 51 19 -7 25 -1 18 18 -6 16
-1 29 12 29 13 0 17 11 9 25 -8 14 -8 19 0 12 8 -7 62 7 119 32 147 64 179 76
213 81 17 3 107 24 200 46 94 23 238 51 320 63 83 11 173 24 200 28 150 22
400 12 400 -16z m-2515 -464 c53 -65 43 -93 -19 -52 -30 19 -57 33 -60 30 -3
-3 -17 -5 -31 -4 -15 0 -12 10 10 27 19 14 28 33 20 41 -8 8 -2 11 15 8 16 -4
45 -26 65 -50z m104 -465 c22 -70 220 -247 338 -303 l117 -56 -97 -12 c-141
-17 -287 -52 -367 -87 -38 -16 -77 -29 -85 -27 -8 2 -15 -5 -15 -15 0 -46
-118 -89 -288 -105 -255 -23 -715 -272 -662 -357 6 -10 0 -24 -13 -32 -15 -9
-18 -5 -8 14 8 15 -3 7 -24 -20 -22 -26 -72 -113 -112 -193 -40 -79 -105 -173
-144 -207 -39 -34 -65 -62 -57 -62 7 0 -20 -33 -60 -74 -39 -41 -72 -87 -72
-102 0 -14 -9 -21 -20 -14 -11 7 -20 -1 -20 -18 0 -17 -24 -73 -53 -125 -82
-148 -91 -401 -19 -558 52 -115 53 -117 18 -188 -56 -112 -62 -485 -10 -613
39 -94 55 -141 62 -173 2 -8 23 -35 47 -61 170 -177 236 -259 293 -364 92
-169 292 -410 340 -410 10 0 29 -14 43 -32 35 -42 216 -132 238 -119 10 6 21
0 26 -14 6 -17 57 -25 164 -25 149 0 157 -3 220 -66 36 -36 114 -86 173 -110
125 -51 143 -78 64 -97 -31 -8 -114 -38 -185 -68 -231 -97 -357 -82 -439 52
-19 32 -43 52 -51 44 -9 -8 -9 6 -1 33 10 32 7 43 -8 33 -12 -7 -22 -3 -22 10
0 35 -201 236 -290 289 -85 50 -123 61 -330 95 -223 36 -274 109 -285 410 -3
80 -12 145 -20 145 -8 0 -15 15 -15 32 0 50 -103 228 -145 250 -20 11 -34 32
-31 46 3 14 -55 78 -129 142 -191 162 -201 216 -78 420 119 197 174 656 83
687 -15 5 -13 17 4 39 20 24 20 28 1 17 -14 -9 -25 -6 -25 7 0 12 -7 18 -16
13 -8 -6 -17 5 -19 23 -2 19 -8 79 -15 134 -14 121 12 156 215 287 248 161
331 288 386 596 52 290 74 309 380 327 321 19 404 55 590 258 248 270 404 381
428 304z m1218 -17 c5 -9 -2 -37 -16 -64 -33 -61 9 -168 127 -328 179 -243
391 -366 692 -403 138 -17 170 -59 171 -227 2 -158 47 -413 63 -353 10 36 12
36 14 -6 5 -110 121 -261 367 -481 102 -90 100 -159 -10 -381 -106 -214 -129
-525 -50 -687 103 -211 73 -315 -126 -444 -77 -50 -145 -104 -152 -121 -6 -16
-19 -25 -29 -19 -10 6 -18 1 -18 -11 0 -13 -11 -35 -25 -49 -70 -72 -112 -131
-125 -174 -8 -26 -22 -56 -31 -67 -8 -11 -30 -94 -47 -185 -51 -271 -79 -296
-362 -325 -255 -26 -530 -120 -530 -181 0 -14 -102 -129 -224 -253 -79 -80
-156 -99 -238 -58 -35 17 -71 26 -80 20 -10 -5 -18 -2 -18 9 0 10 -58 53 -130
96 -158 94 -159 101 -15 116 162 17 261 47 306 92 22 22 42 37 46 34 14 -10
169 142 158 154 -7 6 17 -3 54 -21 214 -107 731 175 870 474 25 54 51 91 58
84 7 -7 13 7 13 31 0 26 49 97 120 173 161 173 258 330 312 505 25 80 37 140
27 134 -11 -6 -19 3 -19 21 0 18 9 27 22 19 15 -10 15 -1 -1 29 -15 28 -15 42
-2 42 12 0 21 14 21 31 0 17 -9 26 -20 19 -11 -7 -20 -3 -20 9 0 11 9 21 19
21 10 0 2 50 -19 111 -46 133 -37 294 16 274 24 -9 27 -3 15 27 -20 48 -20 68
0 116 10 23 8 34 -3 27 -11 -7 -19 5 -19 25 0 20 7 33 15 27 19 -11 18 10 -2
63 -9 22 -9 65 0 95 9 34 8 51 -3 44 -11 -6 -19 10 -19 36 0 151 -195 468
-294 479 -56 6 -108 71 -137 173 -61 213 -251 440 -451 539 -42 21 -73 43 -67
48 5 5 -2 10 -16 10 -14 1 -79 16 -144 34 -66 17 -163 32 -216 32 -91 0 -210
42 -237 84 -7 11 -18 18 -25 17 -8 -1 -38 11 -68 26 -30 16 -93 40 -140 54
-107 32 -108 55 -2 72 46 7 98 27 115 45 18 18 58 48 88 68 59 38 103 121 96
179 -5 37 323 56 345 20z m-614 -575 c55 -16 140 -59 189 -94 82 -60 99 -64
258 -65 341 -2 740 -310 740 -571 0 -98 -50 -175 -125 -191 -119 -25 -376
-201 -583 -399 -35 -33 -101 -77 -146 -97 -53 -24 -92 -58 -107 -95 -21 -52
-41 -66 -82 -61 -7 1 -18 -18 -24 -43 -16 -64 -248 -145 -294 -103 -59 53
-112 34 -177 -64 -98 -149 -70 -235 86 -261 85 -13 85 -51 0 -67 -40 -8 -76 2
-118 32 -33 23 -89 54 -125 68 -76 30 -84 78 -23 133 23 21 64 75 91 121 29
49 68 88 98 95 64 17 72 165 11 220 -47 43 -60 25 -76 -109 -9 -81 -22 -107
-58 -124 -27 -12 -48 -41 -52 -73 l-6 -52 -772 -5 -773 -5 -42 99 c-91 210
-50 380 165 686 86 122 100 134 149 123 115 -27 260 -108 420 -235 108 -86
198 -141 254 -155 70 -18 88 -32 93 -72 5 -38 25 -56 83 -76 42 -15 97 -45
121 -68 62 -58 183 -60 152 -2 -12 22 -55 57 -96 78 -41 21 -94 61 -119 90
-25 29 -66 52 -92 52 -30 0 -54 17 -69 50 -13 28 -62 75 -109 105 -199 129
-417 291 -463 346 -59 71 -72 73 -72 14 -1 -59 -20 -87 -75 -104 l-46 -14 47
69 c25 37 73 120 105 184 141 279 390 450 679 466 143 8 170 16 253 76 160
117 509 164 730 98z m1373 -958 c188 -80 301 -401 258 -732 l-14 -110 -180
-13 c-219 -16 -1410 -21 -1410 -7 0 90 136 209 374 330 227 115 403 243 585
429 143 144 234 169 387 103z m-1439 -862 c6 -15 -2 -31 -17 -37 -24 -10 -50
25 -50 68 0 26 55 1 67 -31z m848 -116 l785 1 32 -110 c81 -277 5 -516 -263
-835 -84 -99 -179 -236 -212 -304 -123 -259 -537 -489 -714 -398 -89 46 -107
85 -203 422 -47 165 -121 379 -164 476 -55 123 -79 205 -79 269 0 72 -10 100
-47 128 -120 95 -89 405 37 365 24 -8 396 -14 828 -14z m-1657 -15 c213 -34
222 -37 222 -77 0 -55 -73 -138 -161 -183 -101 -51 -219 -155 -219 -193 0 -17
-14 -26 -35 -21 -53 12 -157 -49 -335 -194 -163 -133 -321 -210 -436 -212
l-64 -2 70 -33 c99 -48 120 -73 120 -143 0 -33 9 -61 20 -61 11 0 20 14 20 31
0 48 191 223 370 339 89 57 189 136 222 174 34 39 119 101 190 138 70 37 188
125 262 194 165 156 216 152 216 -17 l0 -99 -71 0 c-180 0 -479 -279 -378
-354 20 -14 54 -26 74 -26 21 0 55 -9 76 -21 41 -21 49 -7 27 49 -7 18 -24 32
-38 32 -51 0 -49 62 5 123 30 34 52 71 49 83 -3 11 8 9 25 -5 37 -31 42 -1 6
38 -14 16 2 7 35 -17 33 -25 61 -65 62 -89 4 -132 10 -153 38 -153 23 0 30 24
30 99 0 281 227 458 290 226 17 -63 66 -223 109 -355 43 -132 102 -319 132
-415 29 -96 80 -217 113 -268 162 -255 -19 -458 -404 -456 -516 3 -680 166
-474 471 115 170 254 678 186 678 -25 0 -151 -152 -151 -184 -1 -18 -25 -99
-55 -180 -30 -84 -58 -210 -65 -295 -31 -414 -627 -303 -883 165 -26 48 -109
164 -184 256 -291 360 -377 750 -210 953 27 32 999 35 1194 4z"/>
<path d="M2782 4410 c-11 -65 -78 -108 -140 -91 -76 22 -77 29 9 -141 39 -77
85 -205 103 -284 37 -170 88 -279 150 -323 96 -67 95 -42 -17 329 -38 127 -76
298 -85 380 -9 83 -18 141 -20 130z"/>
<path d="M3697 4095 c-82 -70 -112 -131 -158 -325 -23 -99 -56 -202 -74 -229
-20 -31 -30 -85 -27 -143 3 -80 -5 -102 -57 -154 -62 -62 -81 -176 -44 -270
35 -89 130 105 111 225 -11 69 -7 81 45 114 74 47 86 66 87 133 0 31 40 175
88 320 132 398 134 418 29 329z"/>
<path d="M3184 3456 c-29 -29 -32 -176 -5 -176 27 0 63 71 45 91 -8 8 2 10 21
3 22 -8 35 -3 35 14 0 15 16 39 35 55 32 25 33 24 5 -13 -29 -40 -29 -40 15
-2 25 21 45 41 45 45 0 19 -175 4 -196 -17z"/>
<path d="M2852 3358 c-118 -28 -244 -103 -198 -119 19 -7 66 0 104 16 37 15
73 21 80 11 15 -21 122 -23 109 -2 -5 9 0 16 11 16 11 0 26 -10 33 -21 7 -12
26 -17 42 -11 16 7 24 4 18 -6 -6 -10 6 -22 27 -27 51 -14 43 25 -19 89 -61
64 -108 76 -207 54z"/>
<path d="M3637 3333 c13 -15 16 -33 8 -42 -8 -8 -6 -13 5 -10 11 2 25 2 30 0
6 -2 24 -7 40 -11 164 -36 183 -22 62 46 -89 50 -181 61 -145 17z"/>
<path d="M2349 3031 c-18 -28 -34 -80 -36 -116 l-3 -65 110 -3 c62 -2 134 10
165 26 65 33 67 38 16 38 -21 0 -34 -7 -28 -15 11 -19 -76 -21 -121 -4 -22 8
-32 37 -32 89 0 96 -28 116 -71 50z"/>
<path d="M3974 2485 c-5 -8 -10 -58 -11 -112 -2 -53 -15 -107 -29 -120 -76
-70 -140 -9 -138 133 l2 104 -36 -70 c-60 -114 -69 -160 -33 -160 17 0 31 -9
31 -20 0 -11 12 -20 28 -20 15 0 38 -13 52 -30 61 -73 198 -7 226 108 18 74
-63 239 -92 187z"/>
<path d="M3559 2278 c-13 -32 -19 -65 -13 -71 18 -17 75 46 58 64 -8 8 2 10
21 3 47 -17 45 10 -3 40 -33 21 -41 16 -63 -36z"/>
<path d="M3940 2099 c0 -67 80 -147 289 -288 230 -155 351 -266 351 -322 0
-45 40 -35 43 11 1 22 4 49 7 60 3 11 6 29 8 40 1 11 9 18 17 16 8 -2 42 11
75 29 l60 33 -60 1 c-77 1 -169 51 -374 203 -214 159 -416 264 -416 217z"/>
<path d="M3820 2055 c0 -18 -16 -42 -35 -53 -19 -12 -27 -21 -17 -21 10 -1 -2
-18 -27 -40 -24 -21 -46 -50 -49 -65 -2 -14 -15 -46 -29 -71 -37 -68 6 -55 85
27 82 84 128 200 94 234 -16 16 -22 13 -22 -11z"/>
<path d="M2314 2442 c-42 -71 -44 -161 -5 -213 17 -22 31 -30 32 -19 3 22 19
162 24 214 2 18 11 29 19 23 9 -5 16 5 16 22 0 51 -49 35 -86 -27z"/>
<path d="M3200 2000 c-22 -22 -40 -47 -40 -55 0 -8 -22 -40 -48 -71 -99 -114
-40 -283 94 -270 72 7 130 86 107 146 -13 35 -16 34 -45 -7 -31 -45 -88 -59
-88 -22 0 12 -8 16 -19 10 -32 -20 -10 83 25 118 38 37 45 60 14 41 -30 -18
-25 0 22 79 47 79 38 91 -22 31z"/>
</g>
</svg>
