 <svg  version="1.0" xmlns="http://www.w3.org/2000/svg"  width="256.000000pt" height="256.000000pt" viewBox="0 0 256.000000 256.000000"  preserveAspectRatio="xMidYMid meet">  <g transform="translate(0.000000,256.000000) scale(0.050000,-0.050000)" fill="#ffffff" stroke="none"> <path d="M2330 5097 c-1235 -97 -2215 -1083 -2307 -2321 -19 -261 -14 -259 128 54 15 33 33 103 39 155 7 52 20 95 29 95 9 0 20 46 26 102 5 56 21 109 35 118 15 9 29 41 32 72 8 69 181 415 241 480 25 26 41 48 35 48 -14 0 73 124 146 207 36 40 73 73 84 73 11 0 25 18 32 39 6 21 30 45 51 51 21 7 39 22 39 33 0 21 76 89 208 187 44 33 73 46 64 30 -8 -17 1 -11 21 12 55 62 183 133 210 116 14 -8 18 -6 10 7 -15 24 251 142 346 153 33 4 74 18 91 32 24 20 30 20 31 -3 0 -18 7 -15 21 9 14 23 34 32 59 24 23 -8 39 -3 39 10 0 16 21 19 63 9 43 -9 58 -7 48 9 -9 14 11 22 59 22 43 0 67 8 60 20 -7 11 6 20 28 20 22 0 45 9 52 20 7 11 35 20 62 20 33 0 45 8 36 23 -10 16 -1 20 29 12 28 -7 50 0 63 22 18 30 22 30 41 -2 12 -20 30 -31 40 -24 11 6 19 4 19 -6 0 -10 45 -29 100 -43 55 -14 100 -34 100 -44 0 -10 32 -18 71 -18 47 0 67 -8 58 -22 -10 -16 5 -18 48 -9 43 10 63 7 63 -10 0 -13 13 -18 29 -12 17 6 44 -2 60 -19 20 -20 31 -23 31 -7 0 18 7 18 30 -1 17 -14 58 -28 91 -32 95 -11 361 -129 346 -153 -8 -12 -4 -15 9 -7 32 19 149 -44 132 -72 -9 -14 -5 -16 12 -6 16 10 40 -1 64 -32 22 -26 32 -34 24 -18 -9 17 20 4 63 -29 128 -95 180 -140 186 -161 3 -11 25 -31 49 -43 24 -13 44 -36 45 -50 0 -15 10 -25 22 -23 89 17 562 -747 531 -859 -2 -8 14 -54 37 -102 22 -48 39 -96 36 -105 -3 -10 5 -37 18 -61 13 -23 27 -82 32 -131 5 -49 23 -117 41 -152 17 -34 32 -80 32 -103 0 -23 9 -41 20 -41 11 0 20 -13 20 -30 0 -16 9 -30 20 -30 11 0 20 -18 20 -40 0 -22 -9 -40 -20 -40 -11 0 -20 -13 -20 -28 0 -16 -10 -32 -22 -36 -13 -4 -25 -32 -29 -63 -3 -30 -16 -68 -29 -83 -13 -16 -18 -37 -11 -48 6 -10 3 -25 -9 -32 -11 -7 -20 -41 -21 -76 0 -35 -13 -86 -28 -113 -14 -27 -23 -59 -18 -71 4 -11 -10 -57 -31 -101 -27 -56 -32 -86 -18 -104 14 -17 14 -25 0 -25 -11 0 -32 -34 -45 -75 -20 -64 -63 -149 -187 -375 -12 -22 -27 -44 -32 -50 -6 -5 -24 -36 -40 -68 -33 -65 -336 -375 -495 -507 -104 -86 -140 -105 -112 -60 19 32 -57 -26 -79 -60 -32 -50 -138 -92 -156 -62 -14 21 -17 20 -18 -6 0 -36 -91 -97 -207 -139 -40 -14 -73 -32 -73 -39 0 -7 -13 -12 -30 -12 -16 0 -30 7 -30 16 0 9 -22 6 -50 -7 -27 -12 -50 -30 -50 -39 0 -9 -27 -17 -61 -17 -33 0 -91 -13 -128 -28 -38 -16 -94 -32 -125 -35 -31 -4 -62 -16 -70 -27 -14 -20 -22 -21 -121 -27 -32 -2 -53 -13 -50 -28 3 -14 -10 -22 -30 -19 -19 3 -35 -4 -35 -15 0 -12 -18 -21 -40 -21 -22 0 -40 9 -40 21 0 11 -16 18 -35 15 -20 -3 -33 5 -30 19 3 15 -18 26 -50 27 -74 3 -87 6 -145 32 -106 47 -234 80 -321 84 -34 1 -56 11 -49 21 12 20 -81 53 -124 44 -52 -10 -323 141 -312 175 8 25 6 26 -10 5 -22 -32 -191 55 -212 109 -6 17 -22 24 -34 17 -12 -7 -50 13 -85 45 -35 33 -101 88 -148 124 -46 36 -100 91 -118 122 -19 32 -41 54 -49 49 -58 -36 -498 706 -498 841 0 25 -13 51 -30 57 -20 8 -30 39 -30 93 0 45 -13 102 -30 127 -27 41 -41 106 -48 219 -1 20 -11 31 -22 24 -11 -7 -20 10 -20 39 0 28 -9 51 -19 51 -11 0 -15 13 -8 30 6 17 0 30 -14 30 -14 0 -20 6 -13 13 14 14 -21 67 -44 67 -51 0 48 -615 138 -861 353 -955 1427 -1737 2277 -1656 46 4 83 3 83 -3 0 -6 18 -11 40 -11 22 0 40 4 40 10 0 6 45 8 99 4 1031 -71 2188 947 2372 2087 273 1699 -1032 3122 -2741 2987z"/> <path d="M1955 4658 c-14 -7 -61 -19 -105 -27 -111 -20 -363 -126 -468 -197 -49 -33 -82 -48 -74 -32 8 15 2 12 -14 -7 -16 -19 -37 -35 -48 -35 -11 0 -31 -22 -46 -49 -14 -27 -32 -46 -39 -41 -14 8 -201 -158 -201 -178 0 -5 -23 -44 -52 -86 -78 -115 -65 -305 37 -508 41 -82 75 -159 75 -172 0 -12 7 -26 16 -29 9 -4 40 -50 69 -102 29 -53 42 -90 29 -82 -13 8 -9 -4 10 -25 19 -22 53 -80 76 -129 23 -49 50 -105 61 -124 10 -19 28 -51 39 -70 10 -19 50 -93 87 -165 37 -71 115 -215 173 -319 57 -105 106 -199 108 -210 2 -12 18 -43 35 -71 18 -27 66 -108 107 -180 41 -71 81 -134 89 -140 8 -5 31 -41 53 -78 21 -38 58 -91 83 -118 24 -27 39 -57 33 -67 -6 -10 -4 -16 6 -13 24 8 146 -88 135 -106 -6 -9 6 -15 26 -15 19 0 68 -6 108 -14 51 -9 93 -4 136 17 39 20 57 23 50 8 -7 -13 6 -1 29 26 23 28 42 41 42 30 3 -45 120 223 120 274 0 93 -42 259 -110 436 -85 220 -95 245 -103 275 -4 14 -10 36 -14 50 -4 14 -14 41 -22 61 -18 39 36 114 82 114 15 0 27 9 27 20 0 11 17 20 39 20 38 0 69 30 72 70 0 11 12 18 25 15 13 -3 24 7 24 21 0 15 28 53 62 85 69 66 184 236 242 359 37 80 37 78 24 -492 -12 -532 -11 -577 23 -635 l37 -61 -119 -117 c-131 -128 -135 -136 -138 -263 -2 -104 68 -230 168 -301 106 -76 62 -80 -775 -81 -442 -1 -804 -9 -804 -17 0 -9 -31 -28 -70 -43 -154 -60 -241 -329 -142 -438 21 -23 31 -42 22 -42 -31 0 138 -121 188 -135 124 -35 2148 -17 2215 19 252 138 263 500 17 596 -38 15 -70 35 -70 44 0 9 -67 16 -149 16 -159 0 -197 19 -130 66 23 16 62 57 87 91 25 35 50 58 56 53 5 -6 11 1 12 15 2 14 9 70 16 126 9 74 3 121 -23 180 -19 43 -34 86 -32 94 2 8 -6 15 -17 15 -11 0 -20 14 -20 31 0 35 154 189 172 171 6 -7 9 -3 6 8 -9 38 28 105 107 191 19 22 35 53 35 69 0 17 7 30 16 30 9 0 41 54 71 120 34 74 64 116 77 107 13 -8 17 -4 8 9 -7 12 23 93 67 180 45 87 81 167 81 177 0 11 11 30 24 43 93 93 99 508 8 544 -23 9 -68 44 -101 78 -32 34 -68 62 -80 62 -12 0 -44 15 -71 34 -28 20 -78 32 -119 29 -54 -3 -64 0 -41 16 23 16 12 20 -46 21 -42 0 -71 -8 -65 -18 6 -10 -20 -18 -58 -18 -71 0 -90 -11 -201 -119 -37 -36 -76 -65 -88 -65 -12 0 -20 -7 -17 -15 7 -25 -64 -185 -83 -185 -9 0 -18 91 -19 203 -2 111 -10 212 -20 225 -10 12 -22 60 -28 106 -6 47 -25 99 -42 116 -17 16 -37 50 -44 73 -27 84 -268 387 -308 387 -6 0 -57 29 -112 64 -109 70 -249 126 -317 126 -34 1 -37 4 -12 20 34 22 -243 20 -285 -2z m456 -234 c730 -368 714 -1435 -27 -1776 -150 -69 -153 -19 37 -508 211 -543 207 -713 -20 -707 -178 4 -335 244 -1016 1554 -445 856 -442 845 -262 1042 357 391 941 570 1288 395z m1449 -904 c233 -119 229 -224 -30 -740 -324 -647 -531 -896 -585 -705 -68 244 64 1335 174 1434 86 78 300 83 441 11z m-545 -1751 c51 -36 89 -155 72 -228 -50 -210 -347 -180 -347 35 0 159 162 273 275 193z m367 -775 c91 -70 100 -175 20 -256 l-59 -58 -1083 0 -1083 0 -59 58 c-80 81 -71 186 20 256 46 36 2198 36 2244 0z"/> <path d="M1767 3948 c-117 -179 239 -953 413 -898 128 41 165 309 72 533 -128 312 -390 510 -485 365z m305 -372 c39 -74 39 -210 1 -171 -88 87 -152 336 -68 260 22 -19 52 -59 67 -89z"/> </g> </svg> 