<?xml version="1.0" standalone="no"?>
<!DOCTYPE svg PUBLIC "-//W3C//DTD SVG 20010904//EN"
 "http://www.w3.org/TR/2001/REC-SVG-20010904/DTD/svg10.dtd">
<svg version="1.0" xmlns="http://www.w3.org/2000/svg"
 width="300.000000pt" height="300.000000pt" viewBox="0 0 300.000000 300.000000"
 preserveAspectRatio="xMidYMid meet">
<metadata>
Created by potrace 1.10, written by Peter Selinger 2001-2011
</metadata>
<g transform="translate(0.000000,300.000000) scale(0.050000,-0.050000)"
fill="#ffffff" stroke="none">
<path d="M2740 5048 c-93 -14 -309 -58 -480 -98 -175 -40 -423 -80 -570 -93
-145 -12 -280 -34 -304 -50 -122 -75 -219 -383 -278 -885 -32 -267 -42 -309
-74 -318 -77 -20 -367 -170 -497 -256 -937 -623 -286 -1640 1301 -2037 885
-221 2158 -158 3032 150 1248 439 1241 1174 -19 1828 l-179 93 -64 178 c-426
1194 -974 1630 -1868 1488z m688 -149 c408 -126 730 -529 1023 -1280 138 -355
127 -387 -187 -531 -810 -371 -2145 -342 -2980 66 -262 127 -239 133 -275 -67
-40 -225 -37 -331 11 -392 385 -490 2574 -569 3339 -121 236 138 308 264 308
542 1 147 -20 147 257 -8 1296 -728 848 -1473 -1054 -1752 -2301 -338 -4567
956 -3281 1874 121 86 476 270 522 270 57 0 81 79 122 408 75 603 149 798 308
807 197 11 447 51 806 128 592 127 815 138 1081 56z m-2033 -1917 c53 -21 208
-65 346 -98 222 -53 325 -73 581 -113 144 -23 191 -168 110 -346 l-37 -83
-133 10 c-844 66 -1156 249 -1012 596 36 85 24 82 145 34z m3065 -43 c0 -55
-83 -199 -115 -199 -14 0 -25 -9 -25 -20 0 -11 -10 -20 -21 -20 -12 0 -16 9
-9 20 7 12 -10 10 -39 -3 -38 -17 -45 -28 -27 -40 17 -11 9 -16 -24 -14 -27 2
-126 -20 -220 -49 -184 -56 -461 -112 -577 -117 l-73 -3 80 -15 c60 -11 32
-15 -110 -14 -104 0 -239 -11 -300 -24 -100 -23 -314 -20 -354 5 -9 6 -13 52
-9 102 l7 92 254 0 c439 0 1151 116 1137 185 -3 13 16 27 42 31 30 5 43 -1 34
-14 -8 -13 -1 -17 17 -10 17 7 29 22 26 35 -2 14 26 24 71 26 41 2 104 21 140
43 84 52 95 53 95 3z"/>
<path d="M2551 4702 c-6 -10 -31 -13 -56 -7 -25 6 -39 4 -32 -3 7 -8 102 -36
210 -62 557 -133 954 -171 1085 -101 103 54 52 68 -299 81 -189 7 -313 20
-321 33 -7 12 -24 16 -37 8 -12 -8 -38 -2 -56 12 -25 21 -29 21 -17 1 12 -20
2 -22 -41 -11 -31 7 -70 13 -87 13 -16 0 -43 9 -59 22 -23 18 -25 16 -11 -8
14 -24 12 -26 -11 -9 -16 12 -51 20 -79 17 -27 -2 -67 6 -88 17 -30 16 -36 14
-27 -10 9 -22 2 -28 -26 -20 -21 5 -34 18 -28 27 6 10 7 18 1 18 -5 0 -15 -8
-21 -18z"/>
<path d="M1676 4590 c-158 -51 -141 -97 44 -119 61 -7 138 -22 172 -33 34 -10
79 -22 100 -27 21 -4 146 -36 278 -71 132 -35 326 -86 430 -113 364 -94 550
-144 624 -169 140 -46 287 79 184 157 -358 269 -1460 494 -1832 375z"/>
<path d="M3801 4447 c-106 -56 -207 -59 -481 -17 -104 16 -199 29 -210 29 -11
0 88 -37 220 -82 301 -102 415 -111 491 -39 42 39 105 174 74 159 -3 -1 -45
-24 -94 -50z"/>
<path d="M1604 4103 c7 -37 229 -159 443 -243 277 -110 479 -144 923 -158
l399 -12 -109 -72 c-658 -435 -1239 -309 -1637 355 -73 120 -96 142 -85 80 2
-10 -8 -31 -22 -49 -22 -26 -21 -29 2 -15 21 13 26 9 17 -13 -14 -36 77 -236
107 -236 11 0 16 -8 10 -17 -6 -9 46 -72 114 -140 178 -178 179 -179 260 -213
41 -17 74 -41 74 -54 0 -12 6 -17 13 -10 6 7 37 0 67 -16 30 -16 61 -23 67
-16 7 7 13 3 13 -9 0 -13 16 -23 35 -25 19 -1 78 -3 130 -5 52 -3 95 -11 95
-20 0 -9 16 -9 35 0 19 9 67 15 105 14 39 -1 80 6 93 15 12 10 30 15 40 12 9
-2 36 6 59 19 24 13 48 19 54 12 6 -6 23 -3 38 6 14 9 31 17 36 18 37 8 93 41
112 66 13 18 32 23 48 13 16 -10 21 -8 14 4 -7 11 12 33 42 48 289 149 243
371 -76 366 -82 -2 -159 4 -170 13 -11 8 -58 13 -104 11 -46 -2 -79 3 -74 10
4 8 -32 13 -82 10 -49 -3 -90 1 -90 9 0 7 -25 11 -54 8 -30 -4 -64 1 -75 10
-23 17 -67 23 -164 22 -37 0 -67 11 -74 29 -7 17 -25 24 -42 18 -17 -7 -31 -4
-31 6 0 15 -30 23 -115 31 -14 1 -25 10 -25 20 0 9 -7 13 -16 7 -9 -5 -42 3
-73 19 -30 16 -68 29 -83 29 -16 0 -28 10 -28 22 0 12 -13 17 -30 11 -16 -7
-30 -2 -30 9 0 11 -9 15 -21 7 -11 -7 -32 -4 -45 7 -38 29 -96 21 -90 -13z"/>
</g>
</svg>
