 <svg  version="1.0" xmlns="http://www.w3.org/2000/svg"  width="300.000000pt" height="300.000000pt" viewBox="0 0 300.000000 300.000000"  preserveAspectRatio="xMidYMid meet">  <g transform="translate(0.000000,300.000000) scale(0.050000,-0.050000)" fill="#ffffff" stroke="none"> <path d="M1900 5981 c-16 -11 -80 -14 -142 -8 -74 8 -117 4 -126 -10 -8 -13 -48 -23 -89 -23 -42 0 -93 -13 -114 -29 -22 -17 -76 -30 -121 -30 -54 -1 -102 -16 -139 -45 -35 -28 -78 -43 -112 -39 -103 11 -217 -178 -137 -227 13 -8 9 -28 -10 -56 -38 -54 -38 -89 0 -161 17 -33 24 -78 17 -107 -8 -34 1 -67 30 -107 24 -31 43 -84 43 -117 0 -34 21 -84 50 -118 27 -33 50 -75 50 -94 0 -19 33 -67 74 -107 41 -40 88 -100 105 -133 17 -33 64 -78 105 -100 40 -21 83 -59 93 -82 12 -26 56 -56 105 -72 l85 -28 -89 -52 c-256 -150 -457 -501 -458 -802 0 -100 -19 -132 -152 -258 -344 -325 -385 -831 -99 -1226 39 -53 139 -344 211 -610 64 -237 232 -461 433 -578 64 -38 189 -116 277 -174 156 -102 399 -228 441 -228 12 0 48 -28 80 -61 349 -364 1017 -379 1375 -32 49 48 150 115 224 150 74 35 195 102 267 150 73 47 165 99 203 113 339 131 586 461 630 841 22 192 85 421 129 468 293 312 207 1008 -157 1259 -91 64 -115 117 -128 282 -20 251 -180 527 -383 662 -123 81 -125 97 -19 114 75 13 148 63 148 103 0 13 41 43 90 67 70 34 94 58 103 104 7 33 18 60 25 60 36 0 142 123 142 165 0 27 23 69 50 95 33 31 50 69 50 111 0 35 18 86 40 114 25 32 40 82 40 132 0 44 9 86 20 93 25 16 26 144 1 159 -10 7 -14 55 -8 108 14 114 -53 190 -158 179 -31 -3 -63 4 -71 16 -25 40 -100 68 -179 68 -42 0 -87 10 -100 23 -30 30 -185 61 -335 66 -66 2 -140 10 -164 18 -25 9 -71 3 -110 -13 -36 -15 -99 -24 -139 -19 -40 5 -94 -3 -120 -17 -26 -14 -75 -23 -110 -20 -46 3 -81 -12 -132 -57 -39 -33 -93 -61 -120 -61 -97 0 -283 -246 -355 -470 l-26 -79 -33 101 c-72 221 -250 448 -352 448 -34 0 -79 21 -113 54 -55 53 -162 82 -346 95 -44 3 -116 16 -160 28 -96 27 -92 27 -130 4z m233 -233 c67 -50 100 -29 73 47 -6 19 28 -3 77 -50 94 -90 116 -91 118 -7 1 49 7 45 95 -53 104 -117 124 -126 125 -60 1 69 129 -82 205 -244 114 -239 92 -429 -59 -523 l-65 -40 -146 109 c-193 144 -454 289 -736 409 -384 164 -421 166 -111 5 278 -144 620 -373 773 -517 l128 -121 -49 -93 c-83 -159 -282 -254 -583 -279 -141 -12 -146 -11 -103 21 69 50 56 61 -86 74 -154 15 -196 33 -129 58 60 22 37 40 -104 83 -63 19 -121 45 -128 57 -8 13 -5 17 7 9 26 -16 85 4 85 29 0 10 -12 18 -26 18 -14 0 -75 31 -135 69 -95 61 -102 70 -57 70 84 1 82 23 -8 80 -132 84 -154 121 -74 121 l64 0 -102 92 c-121 109 -125 123 -32 112 90 -11 88 -2 -20 98 -106 98 -111 114 -28 102 71 -10 70 26 -6 151 l-39 65 146 1 147 0 -46 39 -47 39 47 10 c25 6 98 -1 161 -16 122 -30 142 -16 81 52 -39 43 -2 39 158 -17 89 -31 114 -7 53 51 -61 57 -14 53 121 -10 116 -53 145 -50 106 12 -49 79 -10 65 149 -53z m1943 53 c-38 -61 -6 -69 88 -25 146 68 194 78 151 30 -53 -60 -45 -89 18 -65 131 50 213 58 177 18 -55 -60 -20 -75 108 -43 149 36 205 23 152 -36 -36 -40 -34 -40 110 -40 139 0 145 -2 114 -36 -18 -19 -47 -70 -65 -113 l-32 -77 72 12 c88 14 73 -32 -39 -118 -87 -66 -88 -88 -6 -88 l64 0 -97 -99 -97 -98 66 -7 66 -6 -112 -80 c-127 -91 -137 -110 -59 -111 69 0 34 -32 -125 -114 -86 -43 -94 -53 -60 -65 22 -8 47 -11 55 -6 8 4 15 0 15 -10 0 -11 -65 -40 -144 -65 -144 -47 -144 -47 -86 -71 l59 -24 -80 -22 c-43 -12 -111 -22 -151 -22 -93 0 -111 -20 -54 -64 l46 -35 -63 -1 c-296 -2 -579 127 -669 305 l-41 79 47 50 c141 153 555 435 877 598 100 50 178 95 174 100 -36 36 -771 -329 -1018 -506 l-181 -131 -52 39 c-196 146 -165 467 72 744 l58 68 14 -54 13 -54 99 106 c83 90 99 99 99 62 1 -69 30 -70 93 -4 73 78 132 112 115 68 -28 -73 11 -99 69 -46 96 90 182 125 140 57z m-934 -1041 c53 -55 108 -100 122 -100 28 0 101 -155 86 -180 -5 -9 -56 -2 -113 15 -103 30 -368 27 -472 -6 -57 -18 -59 16 -5 121 22 43 40 72 40 64 0 -9 18 -6 41 6 22 12 34 32 26 44 -7 13 -4 17 9 9 12 -8 47 18 78 57 71 89 72 89 188 -30z m79 -472 c652 -191 528 -678 -172 -678 l-261 0 -154 76 c-248 123 -293 274 -129 427 197 182 467 248 716 175z m-943 -135 c61 -74 -471 -578 -791 -748 -182 -97 -192 -90 -164 112 41 302 224 529 503 626 129 44 418 51 452 10z m1966 -48 c250 -124 403 -351 430 -639 15 -160 -21 -167 -217 -41 -415 267 -824 678 -734 738 67 45 382 10 521 -58z m-314 -587 c392 -147 621 -683 444 -1043 -223 -453 -859 -366 -1114 152 -280 566 119 1097 670 891z m-1406 -9 c343 -117 478 -568 280 -935 -336 -624 -1169 -522 -1200 146 -24 520 469 943 920 789z m2284 -368 c370 -254 437 -799 133 -1090 -146 -140 -307 264 -310 780 -2 360 28 413 177 310z m-3476 -36 c115 -176 20 -898 -142 -1073 -61 -66 -80 -65 -143 3 -278 299 -220 822 120 1068 98 71 119 71 165 2z m1736 -556 c6 -17 -2 -35 -19 -42 -39 -15 -57 3 -42 42 15 40 45 40 61 0z m-1472 -326 c40 -91 10 -139 -68 -110 -33 13 -32 15 3 29 34 13 35 15 4 17 -19 0 -35 14 -35 29 0 16 -11 33 -25 39 -19 7 -18 15 5 31 51 36 89 24 116 -35z m1731 1 c580 -259 495 -1022 -132 -1177 -593 -146 -1059 470 -723 956 169 243 571 348 855 221z m1352 -213 c183 -95 184 -595 1 -861 -175 -255 -617 -435 -789 -322 -411 269 348 1410 788 1183z m-2987 -111 c545 -261 755 -1130 265 -1095 -383 27 -697 358 -714 753 -16 369 141 489 449 342z m499 19 c25 -40 -16 -119 -61 -119 -43 0 -138 111 -120 140 10 17 169 -1 181 -21z m1769 13 c0 -15 -14 -33 -32 -40 -46 -17 -48 -16 -48 28 0 27 13 40 40 40 22 0 40 -13 40 -28z m-1467 -942 c12 -31 -24 -90 -55 -90 -10 0 -18 27 -18 60 0 65 51 86 73 30z m975 -221 c253 -82 278 -183 90 -359 -336 -314 -932 -263 -1170 101 -146 222 622 406 1080 258z"/> </g> </svg> 