<?xml version="1.0" standalone="no"?>
<!DOCTYPE svg PUBLIC "-//W3C//DTD SVG 20010904//EN"
 "http://www.w3.org/TR/2001/REC-SVG-20010904/DTD/svg10.dtd">
<svg version="1.0" xmlns="http://www.w3.org/2000/svg"
 width="900.000000pt" height="618.000000pt" viewBox="0 0 900.000000 618.000000"
 preserveAspectRatio="xMidYMid meet">
<metadata>
Created by potrace 1.10, written by Peter Selinger 2001-2011
</metadata>
<g transform="translate(0.000000,618.000000) scale(0.100000,-0.100000)"
fill="#ffffff" stroke="none">
<path d="M3950 4410 c-25 -5 -75 -13 -111 -18 -37 -5 -82 -14 -100 -20 -19 -6
-54 -15 -79 -20 -25 -6 -70 -17 -100 -26 -30 -9 -73 -21 -95 -27 -22 -6 -44
-14 -49 -20 -6 -5 -19 -9 -31 -9 -12 0 -30 -7 -41 -15 -10 -8 -27 -15 -37 -15
-11 0 -31 -7 -45 -14 -15 -8 -45 -22 -67 -31 -22 -9 -67 -29 -100 -45 -33 -15
-67 -31 -75 -34 -8 -4 -42 -22 -75 -40 -33 -19 -80 -45 -105 -59 -68 -36 -88
-48 -158 -94 -35 -24 -65 -43 -68 -43 -4 0 -64 -43 -169 -123 -126 -95 -284
-255 -377 -382 -32 -44 -63 -86 -68 -92 -6 -7 -15 -23 -20 -35 -6 -13 -19 -36
-30 -53 -50 -79 -120 -250 -120 -294 0 -15 -6 -33 -12 -39 -9 -9 -14 -71 -16
-218 l-3 -205 37 -107 c20 -59 40 -109 43 -112 3 -3 16 -26 29 -52 13 -27 28
-48 33 -48 5 0 9 -6 9 -14 0 -20 143 -170 188 -198 20 -12 41 -28 45 -35 4 -7
12 -13 18 -13 5 0 26 -10 47 -23 37 -22 101 -49 198 -81 42 -14 90 -17 253
-17 181 0 208 2 266 22 36 12 68 26 71 30 3 5 11 9 19 9 20 0 125 73 161 111
47 52 94 116 94 128 0 6 4 11 8 11 8 0 31 53 61 140 17 49 25 207 13 255 -35
132 -48 166 -94 237 -64 98 -160 182 -253 220 -110 45 -126 48 -244 48 -135 0
-200 -18 -281 -76 -112 -80 -168 -180 -171 -307 -1 -60 23 -161 42 -173 5 -3
9 -12 9 -21 0 -15 71 -93 84 -93 4 0 22 -11 40 -25 33 -25 116 -48 171 -48 68
0 149 23 184 51 32 26 36 35 39 83 2 47 -1 58 -21 78 -21 19 -34 22 -83 20
-160 -6 -161 -6 -193 25 -85 81 -35 208 97 250 58 18 62 18 133 1 150 -37 241
-130 284 -288 18 -67 18 -71 0 -140 -29 -116 -96 -201 -195 -249 -31 -15 -72
-25 -184 -45 -77 -14 -342 61 -369 104 -4 7 -13 13 -19 13 -17 0 -168 160
-168 178 0 8 -6 23 -13 31 -33 39 -77 200 -77 279 0 160 104 354 247 460 134
98 212 124 388 128 188 4 280 -13 417 -79 81 -39 196 -122 256 -184 44 -46
152 -188 152 -202 0 -5 7 -14 15 -21 8 -7 15 -20 15 -29 0 -9 5 -22 12 -29 17
-17 62 -147 75 -215 4 -18 20 -37 50 -57 24 -17 47 -30 52 -30 4 0 47 -20 97
-44 49 -24 96 -46 105 -49 15 -5 16 8 11 128 -5 145 8 223 54 316 21 43 107
129 128 129 5 0 17 6 25 14 71 62 428 61 502 -1 8 -7 22 -13 30 -13 8 -1 32
-12 54 -25 22 -14 50 -29 63 -35 30 -13 211 -192 302 -299 39 -46 77 -90 85
-98 15 -14 101 -59 215 -111 36 -16 95 -44 131 -61 36 -17 69 -31 72 -31 6 0
-46 93 -83 150 -6 8 -13 22 -16 30 -4 8 -18 40 -32 70 -37 82 -54 155 -59 253
-7 130 24 199 111 255 38 24 46 25 191 24 84 -1 172 -6 196 -12 71 -16 315
-23 419 -11 151 18 222 29 260 40 19 6 48 11 65 11 16 0 43 7 59 15 15 8 35
15 44 15 15 0 81 29 210 92 63 31 122 86 122 114 0 8 7 26 16 39 9 14 14 31
11 40 -5 12 -21 7 -84 -25 -43 -22 -86 -40 -96 -40 -10 0 -31 -6 -45 -14 -41
-22 -160 -46 -227 -46 -58 0 -178 22 -220 41 -11 4 -49 18 -85 29 -36 12 -77
28 -92 36 -14 8 -31 14 -37 14 -12 0 -104 41 -211 94 -49 25 -69 41 -81 67 -9
19 -31 64 -48 100 -43 88 -29 124 29 79 14 -11 31 -20 38 -20 6 0 12 -3 12 -7
0 -16 228 -139 345 -188 22 -9 49 -20 60 -25 35 -16 109 -38 150 -45 22 -4 60
-14 84 -21 48 -16 146 -13 179 5 12 6 33 11 47 11 35 0 141 46 210 90 17 11
41 24 53 30 22 9 23 15 19 73 -4 57 -25 137 -48 179 -5 10 -9 25 -9 34 0 9 -6
28 -13 42 -8 15 -21 44 -30 65 -50 116 -74 155 -126 205 -45 43 -192 113 -311
147 -30 9 -64 21 -75 28 -11 6 -38 14 -60 17 -22 4 -76 17 -120 30 -44 12
-102 26 -130 30 -50 9 -111 22 -195 42 -41 9 -107 20 -216 34 l-41 6 -2 -69
c-1 -37 -4 -76 -7 -85 -6 -19 -43 -24 -60 -9 -11 11 -129 44 -249 71 -27 6
-66 16 -85 22 -19 7 -53 15 -75 19 -88 17 -153 30 -216 44 -37 8 -89 15 -116
15 -27 0 -55 6 -61 13 -10 9 -120 12 -475 14 -254 0 -482 -3 -507 -7z m2762
-324 c74 -20 113 -42 163 -91 79 -79 116 -193 94 -292 -26 -116 -88 -199 -189
-253 -39 -20 -59 -23 -145 -23 -89 -1 -106 2 -152 26 -28 15 -68 44 -88 64
-56 56 -79 105 -102 217 -7 34 13 127 39 179 21 41 113 137 132 137 7 0 18 6
24 12 33 33 145 45 224 24z"/>
<path d="M6545 3952 c-65 -37 -114 -119 -115 -191 0 -86 60 -167 150 -201 58
-22 61 -22 112 -5 67 22 103 47 134 96 20 32 24 51 24 113 0 53 -4 77 -15 86
-8 7 -15 18 -15 24 0 16 -48 60 -87 80 -42 21 -148 20 -188 -2z m217 -85 c53
-41 59 -69 22 -108 -25 -26 -34 -29 -94 -29 -57 0 -70 3 -89 24 -17 18 -22 33
-19 62 3 33 9 42 43 61 55 31 86 29 137 -10z"/>
</g>
</svg>
