 <svg  version="1.0" xmlns="http://www.w3.org/2000/svg"  width="900.000000pt" height="1089.000000pt" viewBox="0 0 900.000000 1089.000000"  preserveAspectRatio="xMidYMid meet">  <g transform="translate(0.000000,1089.000000) scale(0.100000,-0.100000)" fill="#ffffff" stroke="none"> <path d="M4427 10876 c-4 -9 -27 -17 -64 -20 -98 -10 -282 -51 -363 -81 -102 -37 -224 -92 -285 -128 -138 -82 -320 -253 -400 -377 -54 -83 -145 -258 -145 -278 0 -8 -6 -26 -14 -40 -40 -78 -90 -297 -120 -527 -21 -161 -22 -676 -1 -900 22 -230 22 -612 1 -745 -58 -360 -101 -505 -231 -770 -73 -149 -208 -368 -268 -432 -14 -15 -46 -54 -71 -87 -25 -33 -52 -66 -59 -73 -47 -47 -297 -392 -420 -578 -38 -58 -77 -116 -86 -130 -10 -14 -20 -32 -24 -40 -4 -8 -15 -27 -25 -41 -14 -23 -58 -95 -97 -161 -13 -22 -60 -107 -101 -183 -52 -96 -130 -258 -182 -375 -8 -19 -19 -44 -25 -54 -5 -11 -13 -31 -17 -45 -5 -14 -18 -51 -30 -81 -42 -111 -52 -136 -60 -165 -4 -16 -13 -43 -18 -60 -23 -66 -62 -219 -86 -335 -37 -178 -48 -315 -43 -497 3 -98 8 -189 12 -203 5 -22 -3 -36 -49 -88 -31 -35 -103 -125 -160 -200 -56 -75 -122 -156 -146 -179 -52 -53 -209 -131 -325 -162 -136 -37 -292 -139 -367 -239 -92 -123 -108 -175 -108 -357 0 -77 6 -178 14 -225 52 -310 49 -374 -25 -592 -23 -69 -31 -128 -36 -279 -6 -208 13 -267 124 -371 49 -45 203 -128 239 -128 9 0 40 -6 68 -14 59 -17 171 -36 271 -46 164 -17 451 -57 550 -76 189 -36 297 -72 470 -154 264 -125 366 -163 545 -204 377 -86 706 -48 939 108 65 43 192 174 215 221 29 58 56 85 85 85 52 0 189 21 401 61 36 7 88 15 115 19 28 4 77 12 110 18 225 43 534 55 682 27 43 -8 93 -15 112 -15 19 0 73 -7 120 -15 173 -29 270 -38 446 -44 l180 -6 9 -30 c21 -67 86 -190 138 -261 105 -143 273 -257 453 -307 53 -14 415 -15 480 0 81 18 171 51 285 107 190 92 288 170 560 445 169 172 223 220 310 277 132 87 102 70 357 200 423 215 491 254 569 326 59 54 113 129 125 173 6 19 16 35 24 35 12 0 15 20 15 105 0 84 -3 105 -14 105 -8 0 -18 14 -22 32 -20 96 -140 287 -260 418 -59 64 -73 87 -118 192 -9 20 -16 41 -16 48 0 7 -7 33 -15 59 -8 25 -21 73 -29 106 -8 33 -20 80 -27 105 -6 25 -15 61 -20 80 -10 51 -47 149 -70 190 -5 8 -13 24 -18 35 -24 55 -165 183 -234 213 -37 16 -43 36 -25 91 46 137 68 255 83 451 19 245 5 452 -51 720 -21 103 -66 261 -90 318 -8 18 -14 39 -14 47 0 8 -6 29 -14 47 -8 18 -31 74 -51 123 -36 88 -108 246 -125 275 -5 8 -27 51 -50 95 -46 91 -59 114 -138 243 -31 51 -62 100 -67 110 -6 9 -33 50 -60 90 -28 41 -54 81 -60 90 -5 9 -70 97 -144 197 -123 163 -165 217 -267 340 -128 155 -434 563 -434 580 0 2 -13 23 -29 47 -15 24 -43 70 -61 103 -94 172 -133 267 -171 415 -6 25 -17 68 -24 95 -21 77 -25 179 -35 781 -8 549 -17 690 -52 879 -6 33 -14 83 -18 110 -9 65 -32 157 -78 310 -50 170 -161 394 -259 525 -52 69 -191 206 -263 260 -60 44 -231 139 -276 153 -10 3 -44 15 -74 26 -66 25 -192 56 -275 68 -39 5 -59 12 -57 21 3 19 -544 17 -551 -2z m661 -1525 c178 -65 300 -209 374 -439 19 -58 22 -91 22 -237 0 -148 -2 -179 -21 -237 -44 -135 -115 -258 -150 -258 -8 0 -27 6 -41 14 -15 8 -45 21 -67 29 -22 8 -61 24 -87 34 -43 16 -61 36 -40 45 4 2 21 21 38 43 100 131 78 426 -41 548 -32 33 -98 66 -131 67 -64 0 -156 -71 -195 -152 -42 -85 -49 -116 -53 -218 -3 -103 -4 -105 -27 -104 -13 1 -55 13 -94 28 -38 14 -79 26 -90 26 -43 0 -63 26 -67 87 -6 79 9 237 28 298 68 211 214 378 376 430 67 21 203 19 266 -4z m-1342 -120 c110 -63 201 -197 247 -361 18 -62 33 -255 23 -294 -5 -19 -16 -28 -46 -36 -21 -6 -42 -15 -45 -20 -3 -6 -14 -10 -24 -10 -10 0 -24 -7 -31 -16 -8 -8 -25 -14 -39 -12 -25 3 -26 5 -32 93 -7 125 -37 197 -109 262 -29 27 -43 33 -81 33 -38 0 -50 -5 -75 -32 -49 -53 -55 -64 -69 -125 -35 -143 -2 -324 72 -405 14 -14 23 -34 21 -44 -3 -19 -102 -94 -123 -94 -12 0 -72 77 -97 125 -79 152 -111 331 -89 507 12 96 21 130 59 223 35 84 103 164 179 211 32 20 51 23 123 24 76 0 91 -3 136 -29z m602 -777 c48 -9 105 -23 127 -31 86 -33 173 -74 240 -114 48 -28 127 -68 190 -95 17 -7 46 -20 67 -28 20 -9 42 -16 50 -16 7 0 22 -7 32 -15 11 -8 29 -15 40 -15 12 0 30 -7 40 -15 11 -8 29 -15 40 -15 12 0 30 -7 40 -15 11 -8 25 -15 32 -15 25 0 135 -74 163 -109 15 -20 36 -60 46 -88 18 -51 18 -54 1 -110 -50 -158 -189 -282 -421 -378 -117 -48 -188 -84 -270 -135 -42 -26 -221 -113 -275 -134 -25 -10 -58 -24 -75 -31 -62 -28 -179 -40 -270 -27 -46 7 -97 19 -112 27 -15 8 -35 17 -43 20 -8 3 -28 14 -45 25 -16 11 -37 23 -45 27 -19 8 -161 116 -194 146 -13 13 -57 45 -96 72 -86 60 -207 151 -230 174 -27 26 -70 87 -91 128 -13 26 -19 58 -19 108 0 67 2 73 33 105 42 43 82 78 126 110 19 14 44 33 55 42 12 9 46 36 77 60 31 24 99 78 150 122 52 43 103 86 114 95 34 28 124 81 138 81 7 0 22 7 33 15 10 8 30 15 44 15 14 1 45 7 70 14 63 19 138 19 238 0z m1059 -1342 c30 -94 46 -140 90 -257 9 -22 22 -58 30 -80 8 -22 21 -53 28 -70 7 -16 19 -48 28 -70 29 -78 132 -334 153 -382 8 -18 21 -49 29 -68 8 -19 22 -51 30 -70 8 -19 22 -52 31 -73 9 -20 22 -52 30 -70 37 -88 69 -160 139 -317 55 -121 64 -141 90 -200 14 -33 33 -75 41 -92 24 -56 44 -101 59 -138 8 -19 21 -50 29 -67 7 -18 28 -69 46 -113 18 -44 38 -93 45 -110 7 -16 20 -48 28 -70 8 -22 29 -74 45 -115 17 -41 33 -84 35 -95 3 -11 15 -45 27 -75 12 -30 25 -68 30 -85 5 -16 14 -46 21 -65 6 -19 17 -51 24 -70 7 -19 19 -57 28 -85 42 -140 41 -133 26 -148 -8 -8 -59 -61 -114 -118 -171 -177 -358 -404 -461 -559 -32 -49 -113 -211 -137 -275 -25 -66 -58 -255 -92 -525 -57 -457 -84 -627 -122 -775 -35 -142 -84 -203 -218 -273 -73 -38 -175 -82 -189 -82 -8 0 -17 -4 -21 -10 -3 -5 -20 -14 -38 -19 -18 -5 -57 -19 -87 -31 -231 -89 -348 -109 -687 -117 -261 -7 -297 -1 -533 82 -68 24 -217 101 -290 150 -71 47 -160 129 -160 146 0 6 24 34 54 63 121 116 164 233 151 410 -7 98 -28 173 -81 282 -34 70 -121 207 -166 261 -97 115 -170 193 -241 254 -45 40 -84 75 -87 78 -3 4 -36 31 -75 61 -38 30 -72 57 -75 60 -3 4 -61 49 -130 100 -69 52 -159 122 -201 155 -42 33 -104 82 -138 108 l-62 48 19 27 c27 39 57 108 75 172 23 80 47 194 47 221 0 40 33 206 70 349 6 25 15 61 20 80 23 89 64 215 80 242 6 10 10 24 10 33 0 8 6 29 14 47 8 18 22 53 31 78 10 25 23 59 30 75 7 17 21 50 30 75 10 25 24 61 33 80 8 19 21 50 29 68 7 17 20 49 29 70 9 20 23 53 31 72 8 19 21 48 29 63 8 16 14 33 14 38 0 5 14 39 31 76 50 113 55 124 104 243 26 63 53 130 61 148 32 75 42 99 59 142 9 25 22 54 27 64 6 11 14 31 18 45 5 14 18 51 30 81 12 30 25 66 30 80 5 14 18 50 30 80 19 52 73 210 104 310 18 59 69 255 81 313 l6 28 42 -24 c24 -14 67 -42 97 -61 96 -64 239 -128 325 -146 22 -5 53 -13 68 -19 49 -19 272 -13 352 9 87 23 247 85 314 120 9 5 86 42 171 83 85 41 220 107 300 146 80 39 152 71 160 71 10 0 23 -24 37 -68z m1169 -1130 c111 -117 154 -170 236 -285 122 -171 128 -185 98 -209 -29 -24 -38 -23 -50 5 -6 12 -19 36 -30 52 -11 17 -23 37 -27 45 -30 62 -172 249 -254 335 -114 118 -134 155 -86 155 15 0 50 -30 113 -98z m-4066 -101 c0 -18 -164 -361 -228 -476 -25 -46 -95 -199 -101 -223 -9 -34 -22 -37 -54 -12 -20 16 -24 25 -17 38 5 9 32 64 61 122 55 110 103 205 119 230 11 17 108 185 125 215 37 67 72 115 82 115 7 0 13 -4 13 -9z m4620 -1789 c0 -13 -12 -22 -22 -16 -10 6 -1 24 13 24 5 0 9 -4 9 -8z m-5467 -804 c67 -10 120 -36 187 -91 38 -30 202 -263 230 -327 6 -13 14 -27 18 -30 4 -3 16 -23 27 -44 11 -22 25 -44 30 -50 6 -6 21 -33 34 -61 14 -27 27 -52 30 -55 3 -3 14 -21 25 -40 33 -62 57 -104 76 -135 11 -16 31 -50 45 -75 14 -25 34 -58 45 -75 11 -16 25 -40 31 -52 7 -13 16 -23 21 -23 4 0 8 -6 8 -13 0 -8 8 -23 18 -35 10 -11 27 -37 37 -56 11 -20 23 -36 27 -36 5 0 8 -4 8 -10 0 -5 22 -42 50 -82 27 -40 56 -81 62 -92 7 -10 19 -24 26 -32 6 -7 12 -15 12 -18 0 -9 161 -221 171 -224 5 -2 9 -8 9 -13 0 -7 102 -151 140 -196 5 -7 10 -15 10 -18 0 -8 44 -69 53 -73 4 -2 7 -10 7 -17 0 -8 6 -20 13 -27 19 -21 36 -50 48 -80 6 -16 15 -28 20 -28 5 0 9 -8 9 -19 0 -10 7 -24 15 -31 8 -7 15 -20 15 -29 0 -9 6 -26 14 -37 8 -11 17 -37 21 -57 4 -21 11 -40 16 -43 15 -9 10 -92 -8 -148 -58 -181 -108 -254 -230 -332 -29 -19 -55 -34 -59 -34 -3 0 -20 -6 -37 -14 -78 -34 -123 -40 -307 -40 -183 1 -287 14 -337 42 -12 6 -30 12 -41 12 -11 0 -33 7 -48 15 -16 8 -36 15 -45 15 -9 0 -30 7 -45 15 -16 8 -37 15 -46 15 -9 0 -19 4 -23 9 -3 5 -20 13 -37 17 -18 3 -39 10 -48 15 -14 7 -41 19 -142 63 -20 9 -42 16 -50 16 -7 0 -22 7 -32 15 -11 8 -29 15 -40 15 -12 0 -30 7 -40 15 -11 8 -31 15 -45 15 -14 0 -35 7 -45 15 -11 8 -36 15 -56 15 -20 0 -40 4 -46 10 -5 5 -32 12 -59 16 -28 3 -67 12 -88 20 -20 8 -56 14 -78 14 -22 0 -49 5 -61 11 -11 6 -52 15 -92 19 -155 19 -243 32 -275 42 -18 5 -68 14 -110 19 -118 13 -234 34 -258 47 -12 7 -29 12 -37 12 -28 0 -103 53 -120 85 -14 26 -17 50 -13 126 5 97 23 212 37 240 5 9 12 34 15 55 4 22 14 61 22 87 13 38 15 84 11 230 -3 105 -11 195 -17 212 -8 19 -13 100 -14 220 l-2 190 28 43 c27 41 91 89 167 123 19 8 51 23 70 32 19 8 53 23 75 32 231 97 353 184 514 371 18 21 63 72 98 112 36 40 75 85 87 100 83 106 141 126 299 100z m4767 -107 c0 -25 52 -127 105 -206 50 -75 139 -164 191 -190 21 -11 45 -26 52 -32 7 -7 23 -13 35 -13 12 0 40 -7 62 -15 48 -17 196 -20 245 -4 19 6 55 15 80 19 121 21 329 126 438 221 78 68 113 79 247 79 100 0 125 -3 162 -21 41 -20 93 -74 93 -95 0 -6 5 -15 12 -22 12 -12 31 -59 50 -122 5 -19 14 -39 19 -45 5 -5 9 -20 9 -35 1 -14 7 -36 15 -50 8 -14 14 -34 15 -45 0 -11 7 -33 15 -49 8 -15 15 -38 15 -50 0 -11 7 -34 15 -50 8 -15 15 -33 15 -38 0 -6 7 -26 16 -46 33 -78 46 -108 55 -122 4 -8 18 -35 30 -60 25 -50 60 -103 72 -108 4 -2 7 -8 7 -13 0 -13 72 -109 82 -109 4 0 8 -5 8 -11 0 -6 14 -28 30 -49 17 -21 30 -43 30 -48 0 -6 6 -17 13 -24 28 -32 47 -82 47 -129 0 -44 -5 -55 -37 -90 -36 -39 -139 -112 -218 -155 -22 -11 -67 -36 -100 -54 -33 -18 -99 -53 -147 -77 -48 -25 -90 -49 -93 -54 -4 -5 -12 -9 -20 -9 -8 0 -33 -13 -57 -29 -24 -16 -59 -37 -78 -47 -19 -11 -69 -41 -110 -69 -72 -47 -85 -57 -113 -80 -7 -6 -39 -31 -72 -57 -33 -25 -100 -83 -150 -129 -169 -157 -226 -207 -336 -295 -41 -32 -80 -65 -88 -72 -12 -11 -88 -63 -146 -99 -53 -32 -163 -73 -230 -83 -27 -4 -63 -13 -78 -19 -34 -13 -313 -15 -322 -2 -3 5 -20 13 -38 16 -34 8 -90 47 -147 104 -43 43 -119 139 -131 166 -5 11 -13 27 -18 35 -29 52 -41 95 -46 170 -8 120 18 343 51 433 8 20 14 53 14 72 0 18 4 36 9 40 6 3 13 27 16 53 4 26 13 61 21 79 8 17 14 45 14 61 0 17 4 33 9 37 6 3 13 27 17 53 4 25 13 61 20 79 8 18 14 45 14 61 0 16 7 46 15 65 8 20 15 53 15 72 0 20 4 45 10 55 5 10 14 52 19 92 5 40 14 91 20 113 6 22 11 63 11 90 0 28 5 66 11 85 5 19 14 91 19 160 14 189 36 381 49 420 6 19 11 52 11 72 0 20 4 39 9 42 5 3 12 22 16 43 4 20 13 46 21 57 8 11 14 28 14 38 0 10 4 18 9 18 5 0 13 9 16 20 8 26 45 27 45 1z"/> <path d="M3990 8350 c-8 -5 -24 -10 -36 -10 -23 0 -94 -63 -94 -83 0 -7 9 -23 19 -36 15 -19 28 -24 64 -24 26 0 57 7 71 16 14 10 32 17 40 17 17 0 76 48 76 62 0 5 -14 23 -31 39 -32 30 -79 38 -109 19z"/> <path d="M4347 8337 c-42 -33 -34 -66 21 -94 24 -12 50 -27 58 -34 9 -7 38 -13 66 -13 41 0 53 4 69 25 10 13 19 29 19 35 0 22 -57 73 -100 88 -62 22 -100 20 -133 -7z"/> <path d="M5181 7953 c-8 -3 -38 -29 -67 -57 -63 -63 -67 -66 -264 -206 -37 -27 -94 -60 -122 -71 -16 -6 -28 -15 -28 -20 0 -5 -7 -9 -15 -9 -8 0 -43 -14 -77 -31 -177 -87 -267 -111 -438 -116 -137 -4 -198 5 -272 43 -14 8 -33 14 -42 14 -9 0 -16 4 -16 8 0 5 -17 16 -37 25 -21 9 -47 23 -58 32 -11 8 -53 40 -94 70 -72 53 -135 115 -215 209 -42 51 -65 57 -96 24 -44 -47 -18 -108 92 -214 47 -45 98 -90 114 -100 16 -10 34 -24 39 -30 14 -16 104 -74 115 -74 4 0 10 -4 12 -8 3 -9 132 -72 188 -92 19 -7 55 -16 80 -21 25 -4 71 -13 102 -19 42 -9 76 -9 130 -1 40 7 99 16 132 20 32 5 63 14 69 20 6 6 22 11 35 11 13 0 36 6 50 13 15 8 43 21 62 29 55 23 173 79 190 89 8 5 22 12 30 15 8 3 22 10 30 15 8 5 24 13 36 18 34 15 129 74 132 83 2 4 8 8 14 8 9 0 72 45 110 79 10 9 37 32 61 51 56 45 117 123 117 149 0 36 -56 61 -99 44z"/> </g> </svg> 