<?xml version="1.0" standalone="no"?>
<!DOCTYPE svg PUBLIC "-//W3C//DTD SVG 20010904//EN"
 "http://www.w3.org/TR/2001/REC-SVG-20010904/DTD/svg10.dtd">
<svg version="1.0" xmlns="http://www.w3.org/2000/svg"
 width="300.000000pt" height="298.000000pt" viewBox="0 0 300.000000 298.000000"
 preserveAspectRatio="xMidYMid meet">
<metadata>
Created by potrace 1.10, written by Peter Selinger 2001-2011
</metadata>
<g transform="translate(0.000000,298.000000) scale(0.050000,-0.050000)"
fill="#ffffff" stroke="none">
<path d="M4678 5940 c-461 -80 -639 -658 -305 -992 285 -285 808 -193 964 168
197 458 -165 910 -659 824z m182 -138 c0 -9 52 -42 115 -72 63 -31 104 -59 91
-64 -16 -6 -11 -21 15 -47 22 -22 40 -64 42 -94 2 -47 4 -49 11 -10 21 108 43
30 39 -141 l-4 -187 -77 -68 c-42 -38 -94 -78 -115 -90 -21 -12 -32 -27 -24
-35 7 -8 -60 -14 -151 -14 -96 0 -160 8 -153 19 6 10 -6 24 -27 30 -87 28
-192 134 -206 208 -20 100 3 343 32 343 25 0 80 57 88 90 13 57 324 184 324
132z"/>
<path d="M2998 5549 c-281 -51 -876 -276 -855 -323 10 -24 518 -794 535 -811
8 -9 65 7 125 35 894 409 2013 -169 2160 -1116 12 -79 25 -155 29 -169 5 -19
123 -25 505 -25 l498 0 -9 95 c-53 554 -226 987 -570 1420 l-99 125 -64 -48
c-521 -391 -1239 -41 -1245 608 l-2 190 -148 24 c-198 32 -672 29 -860 -5z
m644 -166 c95 2 178 -35 178 -78 0 -14 -9 -25 -20 -25 -11 0 -20 -10 -20 -21
0 -12 10 -15 21 -8 12 7 20 1 17 -14 -2 -15 1 -40 7 -57 38 -99 53 -167 42
-185 -8 -12 -3 -15 10 -7 15 9 23 -1 23 -27 0 -22 10 -41 22 -41 12 0 17 -14
10 -31 -6 -17 -3 -26 7 -20 10 6 24 -6 30 -26 7 -21 34 -62 61 -91 26 -28 38
-52 25 -52 -12 0 -5 -14 16 -32 34 -28 32 -28 -17 1 -30 18 -64 27 -75 21 -10
-7 -19 -4 -19 7 0 11 -18 15 -40 9 -26 -7 -40 -1 -40 17 -1 21 -5 20 -20 -3
-11 -16 -20 -20 -20 -8 0 12 -11 22 -25 22 -14 1 -52 8 -85 16 -33 8 -103 14
-155 14 -52 0 -95 8 -95 18 0 10 -10 18 -21 18 -12 0 -16 -9 -9 -20 7 -11 -2
-20 -19 -20 -17 0 -31 9 -31 20 0 11 -20 19 -45 19 -43 -2 -43 -3 -5 -19 31
-14 20 -18 -50 -20 -163 -5 -220 -10 -220 -21 0 -6 -16 -12 -35 -14 -36 -4
-107 -19 -125 -26 -5 -2 -27 -2 -47 0 -22 3 -32 -4 -24 -17 7 -12 0 -22 -16
-22 -16 0 -45 -6 -64 -13 -24 -9 -32 -5 -25 15 5 15 -9 37 -30 48 -22 11 -50
38 -62 60 -12 22 -38 61 -57 87 -19 26 -29 58 -22 70 8 13 6 16 -3 8 -24 -21
-70 23 -70 67 0 21 -9 38 -20 38 -11 0 -20 14 -20 31 0 19 -10 26 -25 17 -19
-11 -20 -8 -2 12 13 13 19 36 14 51 -11 28 61 59 123 52 31 -4 34 0 12 14 -29
20 79 56 135 45 17 -3 21 5 12 20 -11 17 -5 21 19 12 19 -8 54 -1 78 15 24 16
93 34 153 41 60 7 114 16 120 19 6 4 101 13 211 21 110 8 204 18 209 23 4 4
14 -1 20 -12 7 -11 53 -19 103 -18z m1643 -892 c19 3 30 -3 24 -13 -6 -10 3
-18 20 -18 17 0 31 -9 31 -21 0 -11 23 -45 50 -75 28 -29 50 -64 50 -77 0 -13
9 -27 21 -31 11 -3 22 -26 24 -50 2 -24 10 -39 19 -33 15 9 23 -22 11 -41 -3
-4 11 -25 30 -47 19 -21 29 -44 22 -52 -8 -7 -4 -13 7 -13 19 0 29 -22 57
-125 2 -8 6 -22 9 -30 3 -8 4 -22 2 -30 -1 -8 6 -15 15 -15 10 0 25 -38 33
-85 9 -47 20 -98 25 -115 5 -16 11 -55 12 -85 2 -30 10 -55 18 -55 8 0 15 -32
15 -71 l0 -70 -313 5 c-308 6 -314 7 -320 51 -14 95 -20 116 -43 158 -13 24
-27 60 -30 80 -4 21 -26 69 -50 107 -24 39 -44 84 -44 100 0 17 -27 62 -60
100 -33 39 -72 95 -85 125 -14 30 -36 55 -50 55 -14 0 -25 10 -25 21 0 12 10
15 23 7 15 -9 18 -5 9 9 -8 13 -21 20 -29 15 -8 -5 -28 -1 -44 9 -21 13 -22
18 -3 19 14 0 -4 29 -40 64 -36 36 -64 72 -61 80 3 9 -5 16 -16 16 -12 0 -16
9 -9 20 7 12 23 14 36 6 13 -8 51 -12 84 -9 46 3 53 0 30 -15 -24 -16 -21 -20
14 -17 24 2 39 10 33 19 -5 9 5 16 23 16 18 0 26 -10 19 -22 -7 -12 15 -7 49
11 47 24 62 26 62 7 1 -17 6 -19 15 -5 23 32 201 94 226 78 12 -7 27 6 33 31
6 24 17 35 24 25 6 -11 28 -17 47 -14z"/>
<path d="M1707 4913 c-331 -317 -524 -608 -677 -1022 -48 -129 -66 -202 -51
-207 539 -180 574 -1082 53 -1374 -61 -35 116 -435 324 -730 150 -213 612
-662 677 -659 10 0 94 127 187 282 94 154 209 340 256 412 101 154 105 134
-48 260 -688 571 -720 1648 -66 2287 l135 132 -269 408 c-148 224 -277 411
-286 414 -10 3 -115 -88 -235 -203z m247 -113 c35 0 47 -8 39 -28 -6 -16 3
-34 20 -41 17 -6 26 -24 20 -41 -7 -17 5 -38 28 -50 21 -12 39 -35 39 -51 0
-16 11 -30 25 -31 20 -1 20 -3 0 -11 -27 -11 -35 -49 -10 -45 40 7 66 -4 55
-22 -7 -11 -3 -20 8 -20 11 0 15 -15 8 -33 -9 -23 -5 -29 11 -19 15 10 23 -3
23 -38 0 -30 9 -47 20 -40 11 7 20 3 20 -9 0 -11 -9 -21 -20 -21 -11 0 -20
-14 -20 -31 0 -17 -9 -26 -20 -19 -11 7 -20 -2 -20 -19 0 -18 -13 -37 -30 -44
-16 -6 -30 -24 -30 -39 0 -15 -15 -28 -33 -28 -19 0 -28 -6 -20 -13 7 -8 -2
-30 -20 -50 -18 -21 -27 -37 -19 -37 7 0 2 -13 -12 -28 -14 -15 -33 -24 -41
-19 -8 5 -15 -12 -15 -39 0 -26 -17 -63 -38 -82 -20 -19 -49 -76 -63 -128 -14
-52 -32 -103 -40 -114 -39 -51 -91 -331 -88 -476 2 -85 -5 -160 -14 -166 -10
-6 -12 -20 -4 -32 7 -12 16 -62 20 -111 4 -48 12 -112 18 -142 6 -29 13 -71
15 -93 2 -22 19 -54 38 -72 24 -21 28 -38 14 -52 -14 -14 -11 -30 10 -51 16
-17 25 -36 18 -43 -7 -6 -2 -12 12 -12 13 0 20 -8 14 -17 -6 -10 7 -34 28 -53
21 -19 34 -43 28 -53 -6 -9 -1 -17 11 -17 11 0 21 -10 21 -21 0 -12 -11 -16
-25 -9 -14 7 -9 0 10 -15 19 -16 29 -34 23 -40 -6 -6 7 -17 29 -24 25 -8 37
-24 30 -42 -6 -16 3 -34 21 -41 18 -7 32 -24 32 -38 0 -14 14 -31 30 -37 17
-7 41 -35 53 -62 13 -28 34 -51 47 -51 51 0 94 -76 84 -149 -10 -72 -89 -211
-120 -211 -9 0 -11 -9 -4 -20 7 -11 3 -20 -8 -20 -12 0 -27 -23 -34 -51 -7
-27 -30 -60 -52 -71 -22 -12 -34 -26 -28 -33 17 -17 -30 -66 -51 -53 -10 6
-17 4 -15 -6 7 -40 -4 -49 -32 -26 -16 13 -24 34 -17 45 8 13 3 15 -11 6 -21
-12 -148 98 -166 145 -3 8 -13 12 -21 9 -8 -3 -15 5 -15 16 0 12 -7 17 -15 12
-8 -5 -27 4 -41 19 -21 23 -21 28 0 28 14 1 -3 15 -38 32 -37 19 -59 43 -53
58 5 14 -1 33 -15 41 -16 10 -19 7 -8 -11 10 -17 8 -21 -6 -12 -12 7 -17 26
-11 43 6 16 2 29 -9 29 -11 0 -25 22 -32 50 -7 27 -23 48 -36 45 -13 -3 -33
23 -45 56 -12 34 -37 78 -56 97 -20 19 -30 43 -24 54 6 10 2 18 -10 18 -11 0
-21 18 -21 41 0 22 -14 46 -31 52 -18 7 -29 31 -26 55 3 23 -1 54 -10 68 -19
29 22 89 49 73 10 -6 18 1 18 15 0 15 19 38 42 53 23 14 37 31 31 37 -10 10 2
29 62 95 14 16 25 38 25 51 0 12 11 16 23 8 16 -10 20 -4 12 17 -14 35 24 155
49 155 8 0 10 12 4 27 -6 16 4 43 22 60 18 18 30 53 27 78 -3 25 1 56 10 70 8
14 6 25 -5 25 -14 0 -15 16 -3 47 12 32 10 56 -4 70 -13 13 -16 23 -7 23 9 0
6 13 -8 30 -13 16 -19 43 -13 58 6 16 0 34 -13 39 -17 7 -15 16 6 31 26 19 26
21 -3 22 -29 0 -78 93 -76 145 0 9 -18 35 -40 58 -22 24 -35 51 -29 60 6 9 1
17 -11 17 -11 0 -21 14 -21 30 0 17 -7 28 -16 25 -39 -12 -136 98 -137 155 0
37 -10 58 -25 55 -14 -4 -21 1 -17 10 16 28 41 95 46 121 3 15 26 44 50 65 26
23 34 39 19 39 -19 0 -17 10 7 37 18 20 27 42 20 50 -8 7 -3 13 11 13 13 0 19
9 12 20 -7 11 -2 20 10 20 12 0 17 8 11 18 -6 11 2 32 19 49 16 17 30 39 30
50 0 11 8 23 19 26 10 4 21 21 25 37 3 17 23 46 44 65 21 19 31 35 21 35 -9 0
26 39 77 87 52 48 94 98 94 110 0 13 14 23 30 23 17 0 30 9 30 20 0 11 16 21
35 22 21 1 25 5 10 11 -20 8 -19 15 1 35 34 34 83 50 91 29 3 -9 29 -17 57
-17z"/>
<path d="M454 3579 c-310 -77 -489 -368 -431 -699 81 -461 667 -629 1007 -289
412 413 -6 1131 -576 988z m206 -198 c0 -8 28 -14 63 -14 35 0 73 -15 87 -33
13 -19 30 -28 37 -20 7 7 13 2 13 -12 0 -13 7 -21 15 -17 8 4 35 -13 59 -39
25 -25 34 -46 20 -46 -17 -1 -18 -5 -2 -15 64 -42 70 -413 6 -374 -10 6 -18
-2 -18 -19 0 -16 -18 -42 -40 -58 -22 -15 -35 -33 -28 -39 6 -7 -7 -22 -30
-34 -23 -12 -42 -16 -42 -9 0 7 -13 3 -28 -10 -15 -13 -60 -27 -99 -32 -40 -5
-79 -11 -87 -12 -50 -8 -107 5 -96 22 7 11 -1 15 -18 8 -32 -12 -152 49 -152
77 0 10 -9 12 -20 5 -11 -7 -28 8 -38 34 -10 25 -39 69 -65 98 -118 131 -120
158 -17 293 44 58 80 114 80 124 0 30 217 126 260 115 22 -6 35 -3 30 6 -6 9
1 20 15 25 32 11 95 -5 95 -24z"/>
<path d="M4972 2745 c-196 -998 -1225 -1527 -2173 -1117 -24 10 -64 -39 -169
-212 -76 -124 -194 -314 -264 -422 -151 -235 -150 -204 -11 -266 471 -212
1061 -295 1516 -212 l140 26 24 150 c86 541 655 840 1120 588 l106 -57 144
177 c338 412 534 884 582 1405 l10 115 -495 0 -496 0 -34 -175z m789 -201
c-11 -4 -21 -24 -21 -44 0 -21 -27 -112 -61 -204 -33 -91 -63 -175 -66 -186
-3 -11 -20 -49 -39 -84 -19 -35 -34 -82 -34 -105 0 -45 -19 -52 -56 -21 -17
15 -19 13 -4 -4 31 -37 25 -102 -8 -90 -20 8 -24 -1 -17 -31 7 -26 4 -36 -10
-28 -12 7 -50 -32 -86 -89 -103 -160 -121 -166 -329 -117 -242 58 -664 11
-616 -68 8 -12 -1 -15 -20 -7 -21 8 -32 3 -29 -12 3 -15 -14 -22 -45 -19 -35
4 -42 0 -23 -12 20 -13 21 -22 4 -33 -13 -7 -29 -9 -34 -3 -24 24 -247 -205
-295 -303 -20 -41 -44 -90 -54 -109 -10 -19 -18 -48 -18 -65 0 -16 -9 -30 -20
-30 -11 0 -20 -28 -20 -63 0 -35 -6 -58 -13 -51 -7 8 -24 -2 -38 -21 -45 -61
-969 -47 -969 14 0 7 -29 15 -64 17 -35 3 -73 13 -85 23 -11 9 -43 20 -69 24
-27 4 -51 21 -53 37 -3 17 -12 48 -20 70 -9 22 -8 34 0 26 16 -14 171 223 171
261 0 10 14 24 30 30 17 7 30 33 30 59 0 58 90 60 368 8 220 -42 376 -43 602
-3 178 31 470 137 470 171 0 10 25 13 55 7 41 -9 48 -7 26 8 -17 12 -24 27
-16 35 8 7 27 3 43 -10 19 -16 33 -17 41 -3 8 12 3 21 -9 21 -12 0 -17 9 -10
21 7 11 24 18 37 15 123 -28 673 647 673 824 0 22 9 40 20 40 11 0 20 16 20
36 0 20 22 83 50 140 l50 103 280 -12 c232 -11 281 -8 284 15 2 15 7 -17 11
-72 4 -59 -1 -102 -14 -106z"/>
<path d="M4693 1176 c-284 -59 -494 -345 -468 -636 59 -643 987 -725 1168
-103 122 419 -266 829 -700 739z m301 -213 c20 -10 43 -20 51 -21 8 -1 15 -7
14 -13 -1 -7 32 -38 73 -70 40 -33 66 -59 56 -59 -10 0 -4 -9 12 -20 21 -13
22 -19 5 -20 -21 0 -20 -9 1 -45 15 -25 25 -56 23 -70 -2 -14 -5 -72 -7 -130
-2 -94 -74 -237 -107 -211 -14 11 -74 -59 -61 -72 7 -6 -3 -12 -22 -12 -21 0
-29 -9 -20 -23 8 -13 5 -18 -7 -10 -11 7 -32 -1 -45 -17 -13 -16 -33 -25 -42
-19 -10 7 -24 -3 -30 -20 -8 -19 -36 -31 -75 -30 -69 0 -141 43 -118 69 8 9 4
10 -9 3 -14 -9 -48 12 -80 48 -115 130 -146 161 -146 145 0 -9 -9 -3 -19 13
-12 19 -11 39 4 56 16 21 15 26 -6 21 -50 -11 -51 219 -1 286 29 39 34 58 16
65 -13 5 -8 11 12 11 20 1 31 11 24 22 -7 11 -6 30 1 42 10 16 19 14 31 -5 13
-21 17 -19 18 9 0 20 9 31 20 24 11 -7 20 -5 20 5 0 25 117 89 139 76 10 -6
23 -4 29 6 12 20 191 -5 246 -34z"/>
</g>
</svg>
