<?xml version="1.0" standalone="no"?>
<!DOCTYPE svg PUBLIC "-//W3C//DTD SVG 20010904//EN"
 "http://www.w3.org/TR/2001/REC-SVG-20010904/DTD/svg10.dtd">
<svg version="1.0" xmlns="http://www.w3.org/2000/svg"
 width="300.000000pt" height="280.000000pt" viewBox="0 0 300.000000 280.000000"
 preserveAspectRatio="xMidYMid meet">
<metadata>
Created by potrace 1.10, written by Peter Selinger 2001-2011
</metadata>
<g transform="translate(0.000000,280.000000) scale(0.050000,-0.050000)"
fill="#ffffff" stroke="none">
<path d="M2832 5414 c-643 -699 -888 -1290 -740 -1780 8 -25 -21 -11 -95 45
-290 221 -878 298 -1367 179 -44 -10 -203 -25 -352 -31 l-273 -13 66 -222
c297 -1000 738 -1528 1338 -1603 141 -17 140 -33 -10 -88 -376 -137 -641 -506
-860 -1201 -57 -181 -134 -390 -170 -463 l-67 -132 154 -23 c303 -45 548 -66
620 -52 l74 14 -90 37 c-49 20 -115 37 -146 38 -31 0 -52 9 -46 18 6 10 -34
24 -88 31 -134 18 -127 16 -156 46 -15 14 -40 26 -55 26 -33 0 -39 32 -9 50
11 7 20 34 20 60 0 26 8 53 18 59 9 6 23 42 31 81 7 38 21 70 32 70 10 0 19
15 19 34 0 38 28 132 82 276 20 55 43 129 50 165 7 36 21 65 31 65 9 0 17 13
17 29 0 32 67 159 106 202 13 15 60 75 104 135 44 60 99 121 123 136 155 101
218 146 224 161 3 9 19 17 34 17 15 0 48 27 72 59 24 33 51 55 61 49 10 -6 12
14 5 45 -13 55 -134 187 -172 187 -11 0 -14 9 -7 20 7 11 -1 15 -18 8 -17 -6
-42 -4 -56 5 -14 9 -44 19 -66 22 -22 3 -43 15 -47 26 -3 10 -14 15 -23 9 -22
-14 -200 68 -200 92 0 11 -9 15 -20 8 -11 -7 -20 1 -20 17 0 30 -55 63 -90 55
-11 -3 -13 1 -5 9 8 9 -26 61 -76 117 -172 195 -199 229 -194 252 4 13 -1 18
-11 13 -9 -6 -34 23 -55 63 -21 41 -43 79 -49 84 -11 11 -57 126 -75 190 -6
22 -21 47 -33 55 -14 9 -11 15 8 15 23 0 24 4 4 17 -14 9 -27 35 -29 58 -2 23
-10 38 -18 33 -8 -5 -20 12 -27 37 -7 25 -27 76 -45 115 -82 182 -55 232 120
221 30 -2 55 6 55 17 0 33 260 29 261 -3 1 -14 9 -5 19 18 17 43 27 44 405 46
409 2 454 -3 457 -56 1 -21 5 -24 11 -8 11 27 87 35 87 9 0 -19 221 -116 246
-108 10 3 11 -5 4 -16 -23 -38 155 -15 194 24 20 20 36 44 36 54 0 10 10 22
22 26 14 5 24 96 28 254 3 136 15 253 25 260 20 12 96 249 82 255 -4 1 10 22
31 45 21 23 33 48 26 54 -17 18 33 66 54 53 10 -6 11 0 3 13 -17 28 41 162 71
162 11 0 15 9 8 20 -7 11 1 25 17 32 18 7 25 24 18 43 -7 19 -4 27 9 18 12 -7
47 21 78 62 31 41 70 86 87 99 17 14 23 25 13 25 -9 1 6 20 35 43 30 22 47 51
40 63 -7 12 -4 16 7 9 24 -15 132 93 113 112 -20 21 10 17 54 -7 21 -11 73
-67 116 -125 43 -57 116 -144 163 -192 47 -48 74 -81 60 -72 -13 8 10 -31 52
-87 42 -57 84 -103 92 -103 9 0 16 -13 16 -29 0 -15 16 -44 35 -63 19 -19 35
-43 35 -53 0 -10 14 -29 31 -42 16 -12 29 -36 28 -53 -1 -16 11 -45 27 -64 16
-19 25 -57 19 -85 -5 -27 -2 -45 7 -40 9 6 22 -14 29 -45 7 -31 17 -69 23 -86
6 -16 14 -84 18 -150 17 -259 25 -284 112 -358 l81 -70 103 51 c56 29 105 60
109 70 3 9 14 13 22 7 9 -5 28 4 41 20 14 17 50 30 81 30 31 0 62 8 68 18 39
64 1005 100 1043 39 6 -9 55 -17 109 -17 55 0 99 -9 99 -20 0 -11 26 -20 57
-20 31 0 61 -5 67 -11 20 -20 -54 -250 -127 -394 -9 -19 -17 -57 -17 -85 0
-27 -7 -50 -16 -50 -15 0 -77 -183 -66 -197 2 -3 -12 -21 -33 -40 -21 -18 -63
-80 -95 -138 -31 -58 -64 -105 -73 -105 -9 0 -17 -11 -17 -25 -1 -14 -23 -46
-50 -72 -28 -26 -45 -55 -38 -66 6 -10 2 -16 -8 -12 -11 3 -41 -17 -68 -45
-90 -93 -166 -149 -193 -143 -15 3 -21 -4 -14 -16 19 -30 -72 -62 -104 -36
-19 15 -23 13 -15 -8 8 -21 -17 -36 -94 -56 -243 -62 -408 -169 -384 -250 15
-51 140 -171 179 -171 16 0 29 -9 29 -20 0 -11 19 -20 43 -20 24 0 38 -6 31
-13 -7 -7 23 -38 66 -69 43 -32 112 -102 154 -158 41 -55 86 -100 100 -100 14
0 26 -13 26 -29 0 -17 20 -64 43 -105 24 -42 61 -112 83 -156 22 -44 45 -84
52 -90 8 -5 26 -50 40 -100 15 -49 33 -108 42 -130 39 -107 60 -188 61 -241 0
-33 13 -113 29 -179 53 -218 47 -237 -70 -225 -65 6 -100 1 -100 -13 0 -12 -9
-8 -20 8 -15 25 -63 29 -264 24 -306 -8 -609 26 -766 86 -66 25 -136 51 -155
57 -19 6 -35 20 -35 30 0 10 -14 24 -31 31 -21 8 -26 4 -16 -13 21 -36 -85 59
-196 175 -52 55 -117 123 -144 150 -138 140 -292 585 -210 607 162 43 334 -7
319 -93 -2 -10 4 -12 14 -7 9 6 92 -58 185 -141 147 -132 489 -423 579 -492
150 -117 262 -194 279 -194 12 0 21 -7 21 -16 0 -27 147 -100 178 -89 17 6 22
1 14 -12 -10 -16 9 -23 57 -23 39 0 71 7 71 15 0 9 20 25 45 36 25 11 43 32
40 45 -3 14 8 30 25 37 20 7 30 38 30 90 0 56 -7 75 -23 65 -16 -10 -20 -3
-11 20 14 35 -60 119 -166 188 -86 57 -266 190 -365 270 -52 43 -95 74 -95 70
0 -11 -208 176 -432 389 -101 96 -194 175 -206 175 -12 0 -22 13 -22 29 0 16
-15 37 -33 47 -35 20 -55 144 -23 144 11 0 15 11 11 25 -5 14 6 39 23 55 132
123 178 284 122 429 -12 33 -12 51 0 51 11 0 20 10 20 23 0 12 22 43 50 69 28
25 50 42 50 37 0 -10 264 149 280 169 6 6 62 38 125 69 63 32 115 66 115 77 0
10 10 12 21 5 12 -7 32 2 46 20 13 18 44 34 68 36 25 2 45 10 45 17 0 7 27 24
60 38 33 14 60 31 60 39 0 21 143 61 166 47 11 -7 14 -3 7 9 -15 25 42 51 72
32 12 -7 15 -4 8 8 -8 12 5 28 27 35 22 7 40 22 40 33 0 10 8 14 18 8 11 -6
31 1 45 15 15 15 56 39 92 55 36 16 70 45 77 64 6 19 19 35 28 35 68 0 37 184
-46 275 -42 46 -232 70 -204 25 7 -11 -1 -15 -16 -9 -16 6 -41 -1 -57 -17 -15
-15 -43 -25 -62 -23 -19 3 -35 -7 -35 -23 0 -15 -18 -28 -40 -28 -22 0 -40
-11 -40 -25 -1 -17 -7 -15 -20 5 -13 20 -19 22 -20 5 0 -14 -10 -25 -21 -25
-12 0 -35 -14 -52 -30 -17 -17 -38 -25 -49 -19 -10 6 -18 2 -18 -10 0 -11 -13
-21 -29 -21 -15 0 -42 -14 -59 -31 -17 -17 -52 -35 -77 -40 -25 -5 -54 -20
-65 -34 -11 -14 -38 -28 -60 -32 -22 -4 -51 -16 -64 -27 -13 -11 -35 -13 -48
-5 -13 9 -19 7 -13 -3 6 -10 -2 -30 -17 -44 -15 -14 -28 -21 -28 -14 0 6 -22
-4 -49 -21 -27 -18 -60 -26 -74 -17 -16 10 -20 4 -11 -18 7 -19 6 -32 -2 -29
-22 6 -224 -109 -224 -128 0 -9 -13 -17 -30 -17 -16 0 -30 -10 -30 -23 0 -13
-6 -18 -12 -11 -7 7 -50 -7 -95 -30 -84 -43 -174 -64 -169 -39 5 25 -34 101
-54 104 -43 8 -81 27 -93 46 -8 11 -70 27 -139 35 -191 22 -179 -43 -177 967
l1 881 -73 67 c-63 58 -83 66 -144 56 -66 -11 -197 -108 -175 -130 5 -5 1 -20
-10 -33 -32 -39 -43 -272 -47 -1050 -4 -753 -7 -780 -77 -780 -72 0 -175 -81
-252 -197 -71 -107 -164 -164 -164 -101 0 14 -6 19 -12 12 -7 -7 -47 5 -88 26
-41 21 -80 33 -86 28 -6 -6 -16 7 -23 29 -7 23 -25 37 -39 31 -26 -10 -470
240 -497 280 -8 12 -15 14 -15 5 0 -10 -14 -7 -30 7 -17 14 -30 19 -30 12 0
-12 -16 0 -122 93 -52 44 -84 59 -133 61 -14 0 -25 7 -25 15 0 19 -230 162
-315 197 -36 15 -65 34 -65 43 0 66 -182 -53 -227 -148 -59 -125 131 -391 254
-357 9 3 21 -14 27 -37 9 -32 16 -36 28 -16 13 20 17 20 18 3 0 -25 117 -98
145 -90 8 2 15 -5 15 -16 0 -12 34 -36 75 -55 41 -19 86 -45 99 -57 13 -13 83
-57 155 -100 72 -42 131 -84 131 -93 0 -10 8 -12 18 -6 10 6 46 -12 80 -41 34
-28 62 -41 62 -29 0 12 19 5 42 -16 23 -22 104 -69 180 -105 79 -38 139 -79
140 -97 1 -21 5 -23 11 -6 32 79 57 5 74 -217 5 -62 18 -131 30 -153 12 -22
15 -46 8 -53 -8 -8 0 -9 17 -2 49 19 129 -159 100 -223 -12 -27 -31 -44 -42
-37 -11 7 -20 1 -21 -14 -1 -30 -214 -208 -241 -201 -10 3 -16 -2 -13 -10 5
-16 -80 -108 -92 -100 -8 5 -211 -150 -269 -205 -17 -16 -39 -31 -48 -32 -9
-2 -23 -5 -31 -8 -8 -3 -24 -3 -35 -1 -11 3 -13 -2 -5 -11 8 -8 -12 -31 -45
-51 -33 -20 -60 -44 -60 -52 0 -9 -19 -18 -43 -20 -24 -2 -49 -11 -55 -21 -7
-10 -61 -48 -122 -85 -60 -36 -147 -95 -192 -132 -46 -36 -90 -59 -98 -51 -9
8 -11 1 -6 -16 5 -16 -3 -42 -17 -56 -89 -89 41 -284 188 -284 106 0 565 242
565 298 0 10 15 16 33 14 17 -3 52 14 77 36 73 68 153 132 164 132 6 0 45 28
88 62 49 38 78 51 79 35 1 -15 9 -8 19 16 19 48 188 172 207 153 7 -7 14 0 15
16 1 15 43 64 94 108 50 44 84 67 76 50 -9 -18 -4 -16 13 5 16 19 36 28 45 20
9 -8 10 -4 3 9 -8 14 5 34 31 49 55 29 196 40 196 15 0 -10 23 -18 50 -18 57
0 65 -41 27 -134 -13 -31 -24 -60 -25 -66 -8 -41 -78 -160 -94 -160 -11 0 -15
-8 -9 -18 6 -9 -2 -28 -16 -40 -15 -12 -53 -62 -84 -111 -30 -49 -63 -85 -72
-79 -10 6 -17 -8 -17 -31 0 -22 -9 -41 -20 -41 -11 0 -20 -13 -20 -29 0 -16
-10 -35 -23 -43 -16 -10 -18 -5 -7 14 9 15 -8 6 -37 -20 -29 -27 -53 -60 -53
-74 0 -15 -17 -22 -42 -18 -28 6 -38 0 -32 -18 19 -47 -163 -149 -212 -118
-11 7 -15 3 -8 -8 17 -27 -59 -60 -178 -77 -54 -8 -109 -23 -122 -33 -14 -11
-36 -16 -50 -11 -14 5 -40 -7 -56 -25 -17 -19 -59 -41 -95 -49 -36 -8 -65 -22
-65 -33 0 -10 -16 -18 -35 -18 -30 -1 -31 -3 -5 -20 68 -44 392 13 689 121
339 124 692 572 944 1197 18 44 25 34 76 -110 330 -931 756 -1208 1858 -1208
204 0 417 -10 473 -22 129 -28 123 -55 69 282 -151 958 -508 1537 -1034 1679
-116 32 -105 61 22 61 547 0 956 391 1294 1239 63 157 145 341 182 407 82 145
90 137 -183 200 -761 176 -1470 125 -1757 -127 -116 -103 -113 -105 -100 86
25 378 -135 750 -541 1252 -123 153 -204 269 -306 440 l-40 66 -174 -189z
m210 -496 c37 -37 41 -58 31 -145 -38 -312 -53 -891 -34 -1284 29 -591 35
-539 -52 -541 -76 -1 -80 -4 -225 -185 -48 -59 -78 -81 -103 -73 -22 7 -44 -2
-57 -24 -19 -34 -21 -34 -21 -1 -1 19 -10 35 -21 35 -11 0 -18 -10 -15 -23 3
-12 -20 -30 -51 -38 -31 -9 -71 -28 -88 -42 -44 -37 -18 121 41 243 55 116
112 145 254 132 l112 -11 -17 135 c-57 474 -19 1743 55 1817 59 58 136 60 191
5z m2318 -1338 c114 -114 62 -170 -340 -366 -367 -178 -638 -329 -1018 -566
l-279 -173 67 -69 c129 -133 117 -210 -60 -371 l-104 -95 -27 115 c-15 63 -41
126 -58 139 -28 22 -27 25 4 25 19 1 35 12 35 25 0 13 18 43 41 67 62 66 93
223 54 269 -32 39 -271 120 -353 120 -34 0 -60 7 -59 15 9 38 -56 130 -120
170 l-71 43 79 37 c184 85 345 13 401 -180 l31 -107 64 47 c328 243 1520 894
1638 895 19 0 53 -18 75 -40z m-4498 -156 c346 -226 799 -496 1131 -675 l357
-191 202 -3 c239 -2 232 -5 311 151 129 259 213 262 284 12 49 -169 77 -182
323 -151 229 29 250 -62 48 -209 -192 -138 -192 -171 -2 -336 116 -101 119
-107 113 -192 l-6 -89 304 -284 c326 -305 575 -511 890 -736 238 -170 247
-180 239 -264 -9 -97 -88 -138 -180 -94 -186 91 -988 747 -1273 1043 l-88 90
-62 -38 c-73 -44 -123 -47 -282 -15 l-116 24 81 41 c44 23 113 71 152 107 40
37 72 62 72 56 0 -18 168 50 204 83 20 18 36 46 36 63 0 24 -5 26 -24 7 -13
-13 -76 -24 -139 -24 -157 0 -198 -24 -267 -156 -106 -201 -209 -202 -276 -2
-58 173 -84 190 -256 163 -265 -41 -322 39 -147 207 60 57 109 115 109 127 0
46 -59 133 -148 220 -58 57 -92 107 -92 137 0 72 -49 42 -56 -34 -4 -38 8 -87
28 -118 20 -30 33 -58 30 -62 -3 -5 9 -16 26 -26 44 -24 40 -112 -8 -206 -81
-158 18 -348 183 -352 112 -2 213 -29 191 -51 -15 -15 81 -103 156 -142 l60
-32 -70 -29 c-124 -52 -249 -54 -331 -6 l-73 43 -114 -110 c-345 -334 -1309
-1011 -1439 -1011 -185 0 -168 173 29 296 533 331 1365 962 1404 1064 3 9 -47
76 -112 149 -169 190 -191 284 -99 417 22 31 36 59 32 63 -4 3 -133 71 -287
151 -300 155 -378 199 -780 446 -628 385 -664 420 -550 534 61 61 121 49 282
-56z"/>
</g>
</svg>
