 <svg  version="1.0" xmlns="http://www.w3.org/2000/svg"  width="300.000000pt" height="260.000000pt" viewBox="0 0 300.000000 260.000000"  preserveAspectRatio="xMidYMid meet">  <g transform="translate(0.000000,260.000000) scale(0.050000,-0.050000)" fill="#ffffff" stroke="none"> <path d="M1423 5065 c-43 -74 -141 -245 -219 -379 -78 -134 -156 -266 -175 -295 l-34 -51 2005 0 2005 0 -36 55 c-20 30 -133 221 -250 425 l-214 370 -83 6 c-49 4 -82 -2 -82 -15 0 -36 125 -281 143 -281 9 0 17 -18 17 -40 0 -22 9 -40 20 -40 11 0 20 -13 20 -30 0 -16 7 -30 15 -30 22 0 65 -101 65 -152 0 -25 11 -49 25 -55 14 -5 -729 -11 -1650 -11 -1167 -2 -1675 4 -1675 19 0 12 7 17 16 11 14 -8 70 109 73 152 1 8 17 33 35 55 52 60 196 344 196 385 0 104 -134 42 -217 -99z"/> <path d="M2021 3460 l-1529 -10 -236 -410 c-130 -225 -236 -423 -236 -439 0 -37 465 -859 486 -860 9 -1 648 344 1420 766 772 421 1483 809 1579 861 194 104 204 114 110 107 -36 -2 -753 -9 -1594 -15z m851 -205 c25 -25 -9 -42 -38 -18 -21 17 -27 13 -26 -22 1 -27 -10 -45 -28 -45 -16 0 -34 -4 -40 -10 -5 -5 -88 -50 -183 -100 -95 -49 -169 -96 -164 -105 5 -8 -5 -15 -22 -15 -17 0 -31 -9 -31 -20 0 -11 -17 -20 -38 -20 -20 0 -48 -13 -62 -30 -14 -16 -40 -30 -57 -30 -18 0 -64 -20 -103 -44 -70 -44 -81 -49 -121 -53 -12 -2 -15 -13 -7 -26 8 -13 6 -18 -4 -12 -10 6 -50 -6 -88 -26 -39 -21 -61 -38 -50 -38 30 -2 -90 -61 -122 -61 -16 0 -28 -7 -28 -16 0 -9 -31 -27 -70 -41 -38 -14 -70 -34 -70 -44 0 -11 -7 -17 -15 -14 -28 9 -184 -70 -173 -88 5 -9 -2 -12 -17 -6 -14 5 -45 -6 -67 -26 -57 -50 -122 -85 -159 -85 -17 0 -26 -8 -20 -18 9 -15 -18 -30 -99 -52 -11 -3 -69 -34 -130 -70 -60 -36 -130 -72 -155 -82 -25 -9 -45 -26 -45 -38 0 -73 -86 -6 -171 135 -51 85 -102 158 -111 162 -10 3 -14 14 -8 23 6 9 -1 29 -15 44 -28 31 -59 79 -106 162 -32 58 8 234 54 234 9 0 17 14 17 30 0 17 7 30 15 30 8 0 42 52 74 115 33 63 69 122 80 130 13 9 14 15 1 15 -11 0 -6 9 10 20 17 10 30 27 30 37 0 10 22 46 48 81 l49 63 1125 -6 c618 -3 1131 -12 1140 -20z"/> <path d="M5270 3348 c-110 -61 -819 -449 -1576 -862 -756 -413 -1373 -752 -1370 -754 3 -1 721 3 1595 8 l1589 10 236 410 c130 225 236 423 236 439 0 42 -466 859 -490 859 -11 1 -110 -49 -220 -110z m201 -177 c16 -15 29 -38 29 -50 0 -11 9 -21 20 -21 11 0 20 -17 20 -38 0 -21 7 -42 15 -45 8 -4 47 -68 85 -143 39 -75 86 -153 105 -174 35 -39 50 -180 18 -180 -26 0 -124 -192 -108 -210 8 -9 4 -10 -10 -2 -15 9 -25 3 -25 -14 0 -16 -13 -40 -30 -54 -16 -13 -25 -33 -19 -42 6 -10 4 -18 -6 -18 -10 0 -30 -31 -45 -70 -15 -38 -34 -70 -42 -70 -7 0 -19 -22 -26 -50 l-13 -50 -1171 0 c-775 0 -1166 7 -1158 20 7 11 33 20 59 20 25 0 58 16 74 35 25 32 24 32 -8 7 -20 -15 -41 -23 -47 -17 -5 6 17 23 51 38 33 15 61 34 61 42 0 8 13 15 28 15 16 0 125 54 244 120 118 66 222 120 232 120 9 0 16 7 16 15 0 9 38 32 85 52 47 20 114 59 150 86 36 27 84 53 107 57 23 5 52 17 65 27 26 20 191 114 283 160 33 16 67 40 75 51 8 12 15 15 15 6 0 -22 160 69 160 91 0 9 8 12 18 6 9 -6 48 10 85 36 37 25 97 58 132 74 36 16 65 36 65 44 0 8 12 15 27 15 15 0 60 22 100 49 40 28 73 45 73 40 0 -6 25 3 55 20 70 38 120 39 156 2z"/> <path d="M1029 809 c18 -28 132 -222 254 -430 215 -370 222 -379 286 -379 89 0 81 34 -90 369 -75 147 -131 273 -124 279 18 19 3281 14 3293 -4 5 -9 -8 -46 -29 -81 -21 -35 -39 -77 -39 -93 0 -17 -9 -30 -20 -30 -11 0 -20 -13 -20 -30 0 -16 -7 -30 -16 -30 -9 0 -28 -34 -42 -75 -15 -41 -41 -91 -58 -110 -16 -19 -24 -35 -16 -35 7 0 2 -20 -11 -45 -48 -88 -37 -118 39 -111 67 6 75 17 283 376 117 204 230 395 250 425 l36 55 -2005 0 -2005 0 34 -51z"/> </g> </svg> 